<?xml version="1.0" encoding="UTF-8" standalone="no"?>
<!-- Created with Inkscape (http://www.inkscape.org/) -->

<svg
   xmlns:osb="http://www.openswatchbook.org/uri/2009/osb"
   xmlns:dc="http://purl.org/dc/elements/1.1/"
   xmlns:cc="http://creativecommons.org/ns#"
   xmlns:rdf="http://www.w3.org/1999/02/22-rdf-syntax-ns#"
   xmlns:svg="http://www.w3.org/2000/svg"
   xmlns="http://www.w3.org/2000/svg"
   xmlns:xlink="http://www.w3.org/1999/xlink"
   xmlns:sodipodi="http://sodipodi.sourceforge.net/DTD/sodipodi-0.dtd"
   xmlns:inkscape="http://www.inkscape.org/namespaces/inkscape"
   width="76.203362mm"
   height="30.232319mm"
   viewBox="0 0 76.203361 30.232319"
   version="1.1"
   id="svg101"
   inkscape:version="0.92.2 2405546, 2018-03-11"
   sodipodi:docname="logoi-logo.svg">
  <defs
     id="defs95">
    <inkscape:perspective
       sodipodi:type="inkscape:persp3d"
       inkscape:vp_x="100.38532 : 806.05727 : 1"
       inkscape:vp_y="0 : 3779.5273 : 0"
       inkscape:vp_z="711.22904 : 1046.0572 : 1"
       inkscape:persp3d-origin="411.52146 : 361.82781 : 1"
       id="perspective8128" />
    <linearGradient
       inkscape:collect="always"
       id="linearGradient8124">
      <stop
         style="stop-color:#000000;stop-opacity:1;"
         offset="0"
         id="stop8120" />
      <stop
         style="stop-color:#000000;stop-opacity:0;"
         offset="1"
         id="stop8122" />
    </linearGradient>
    <linearGradient
       id="linearGradient7380"
       osb:paint="solid">
      <stop
         style="stop-color:#ad0000;stop-opacity:1;"
         offset="0"
         id="stop7378" />
    </linearGradient>
    <linearGradient
       id="linearGradient7372"
       osb:paint="solid">
      <stop
         style="stop-color:#000000;stop-opacity:1;"
         offset="0"
         id="stop7370" />
    </linearGradient>
    <linearGradient
       inkscape:collect="always"
       id="linearGradient4689">
      <stop
         style="stop-color:#000000;stop-opacity:1;"
         offset="0"
         id="stop4685" />
      <stop
         style="stop-color:#000000;stop-opacity:0;"
         offset="1"
         id="stop4687" />
    </linearGradient>
    <inkscape:perspective
       sodipodi:type="inkscape:persp3d"
       inkscape:vp_x="22.678574 : 216.53572 : 1"
       inkscape:vp_y="0 : 999.99995 : 0"
       inkscape:vp_z="184.29763 : 280.03569 : 1"
       inkscape:persp3d-origin="105.00002 : 98.999994 : 1"
       id="perspective111" />
    <linearGradient
       inkscape:collect="always"
       xlink:href="#linearGradient4689"
       id="linearGradient4691"
       x1="50.937813"
       y1="16.732403"
       x2="57.515148"
       y2="28.060038"
       gradientUnits="userSpaceOnUse"
       gradientTransform="matrix(0.46262371,0,0,0.46262371,-5.5316716,-2032.1972)" />
    <filter
       inkscape:collect="always"
       style="color-interpolation-filters:sRGB"
       id="filter7944"
       x="-0.0083246231"
       width="1.0166492"
       y="-0.021486383"
       height="1.0429728">
      <feGaussianBlur
         inkscape:collect="always"
         stdDeviation="0.483407"
         id="feGaussianBlur7946" />
    </filter>
    <filter
       inkscape:collect="always"
       style="color-interpolation-filters:sRGB"
       id="filter8116"
       x="-0.033298492"
       width="1.066597"
       y="-0.085945532"
       height="1.1718911">
      <feGaussianBlur
         inkscape:collect="always"
         stdDeviation="1.933628"
         id="feGaussianBlur8118" />
    </filter>
    <linearGradient
       inkscape:collect="always"
       xlink:href="#linearGradient8124"
       id="linearGradient8126"
       x1="16.297602"
       y1="46.090847"
       x2="157.98485"
       y2="46.090847"
       gradientUnits="userSpaceOnUse" />
    <filter
       inkscape:collect="always"
       style="color-interpolation-filters:sRGB"
       id="filter8750"
       x="-0.028511005"
       width="1.057022"
       y="-0.15168774"
       height="1.3033755">
      <feGaussianBlur
         inkscape:collect="always"
         stdDeviation="0.64626105"
         id="feGaussianBlur8752" />
    </filter>
    <filter
       inkscape:collect="always"
       style="color-interpolation-filters:sRGB"
       id="filter8762"
       x="-0.0071277511"
       width="1.0142555"
       y="-0.037921935"
       height="1.0758439">
      <feGaussianBlur
         inkscape:collect="always"
         stdDeviation="0.16156526"
         id="feGaussianBlur8764" />
    </filter>
  </defs>
  <sodipodi:namedview
     id="base"
     pagecolor="#ffffff"
     bordercolor="#666666"
     borderopacity="1.0"
     inkscape:pageopacity="0.0"
     inkscape:pageshadow="2"
     inkscape:zoom="2.5600001"
     inkscape:cx="118.24912"
     inkscape:cy="38.788565"
     inkscape:document-units="mm"
     inkscape:current-layer="layer1"
     showgrid="false"
     inkscape:snap-global="true"
     inkscape:window-width="1916"
     inkscape:window-height="1029"
     inkscape:window-x="1280"
     inkscape:window-y="24"
     inkscape:window-maximized="0"
     inkscape:measure-start="565.625,835.156"
     inkscape:measure-end="64.0625,1099.22"
     fit-margin-top="0"
     fit-margin-left="0"
     fit-margin-right="0"
     fit-margin-bottom="0"
     borderlayer="false" />
  <metadata
     id="metadata98">
    <rdf:RDF>
      <cc:Work
         rdf:about="">
        <dc:format>image/svg+xml</dc:format>
        <dc:type
           rdf:resource="http://purl.org/dc/dcmitype/StillImage" />
        <dc:title></dc:title>
      </cc:Work>
    </rdf:RDF>
  </metadata>
  <g
     inkscape:label="Layer 1"
     inkscape:groupmode="layer"
     id="layer1"
     style="display:inline"
     transform="translate(-1.2364554,2031.7867)">
    <text
       xml:space="preserve"
       style="font-style:normal;font-variant:normal;font-weight:normal;font-stretch:normal;font-size:57.62124634px;line-height:1.25;font-family:'GFS Artemisia';-inkscape-font-specification:'GFS Artemisia';letter-spacing:0px;word-spacing:0px;opacity:0.3;fill:#004e64;fill-opacity:0.94117647;stroke:none;stroke-width:0.45371062;stroke-miterlimit:4;stroke-dasharray:none;paint-order:stroke markers fill;filter:url(#filter7944)"
       x="80.291557"
       y="-767.00848"
       id="text26"
       transform="matrix(0.46262368,0,0,0.46262368,2.4547902,-1654.7506)"><tspan
         sodipodi:role="line"
         id="tspan24"
         x="80.291557"
         y="-767.00848"
         style="font-style:normal;font-variant:normal;font-weight:normal;font-stretch:normal;line-height:0;font-family:'GFS Artemisia';-inkscape-font-specification:'GFS Artemisia';text-align:center;letter-spacing:0px;writing-mode:lr-tb;direction:ltr;baseline-shift:baseline;text-anchor:middle;fill:#004e64;fill-opacity:0.94117647;stroke-width:0.45371062;stroke-miterlimit:4;stroke-dasharray:none;paint-order:stroke markers fill">λογοι</tspan></text>
    <text
       id="text7502"
       y="-2009.8459"
       x="39.611168"
       style="font-style:normal;font-variant:normal;font-weight:normal;font-stretch:normal;font-size:26.65695381px;line-height:1.25;font-family:'GFS Artemisia';-inkscape-font-specification:'GFS Artemisia';letter-spacing:0px;word-spacing:0px;fill:#1e2223;fill-opacity:0.94117647;stroke:none;stroke-width:0.20989726;stroke-miterlimit:4;stroke-dasharray:none;paint-order:stroke markers fill"
       xml:space="preserve"><tspan
         style="font-style:normal;font-variant:normal;font-weight:normal;font-stretch:normal;line-height:0;font-family:'GFS Artemisia';-inkscape-font-specification:'GFS Artemisia';text-align:center;letter-spacing:0px;writing-mode:lr-tb;direction:ltr;baseline-shift:baseline;text-anchor:middle;fill:#1e2223;fill-opacity:0.94117647;stroke-width:0.20989726;stroke-miterlimit:4;stroke-dasharray:none;paint-order:stroke markers fill"
         y="-2009.8459"
         x="39.611168"
         id="tspan7500"
         sodipodi:role="line">λογοι</tspan></text>
    <text
       id="text7950"
       y="-766.42383"
       x="79.853065"
       style="font-style:normal;font-variant:normal;font-weight:normal;font-stretch:normal;font-size:57.62124634px;line-height:1.25;font-family:'GFS Artemisia';-inkscape-font-specification:'GFS Artemisia';letter-spacing:0px;word-spacing:0px;opacity:0.3;fill:#92dce5;fill-opacity:0.94117647;stroke:none;stroke-width:0.45371062;stroke-miterlimit:4;stroke-dasharray:none;paint-order:stroke markers fill;filter:url(#filter8116)"
       xml:space="preserve"
       transform="matrix(0.46262368,0,0,0.46262368,2.4547902,-1654.7506)"><tspan
         style="font-style:normal;font-variant:normal;font-weight:normal;font-stretch:normal;line-height:0;font-family:'GFS Artemisia';-inkscape-font-specification:'GFS Artemisia';text-align:center;letter-spacing:0px;writing-mode:lr-tb;direction:ltr;baseline-shift:baseline;text-anchor:middle;fill:#92dce5;fill-opacity:0.94117647;stroke-width:0.45371062;stroke-miterlimit:4;stroke-dasharray:none;paint-order:stroke markers fill"
         y="-766.42383"
         x="79.853065"
         id="tspan7948"
         sodipodi:role="line">λογοι</tspan></text>
    <g
       sodipodi:type="inkscape:box3d"
       id="g113"
       style="fill:#1a1a1a;fill-opacity:0.00092283"
       inkscape:perspectiveID="#perspective111"
       inkscape:corner0="1.3595307 : 0.34613675 : 0 : 1"
       inkscape:corner7="0.74605269 : 0.22537786 : 0.25 : 1">
      <path
         sodipodi:type="inkscape:box3dside"
         id="path115"
         style="fill:#353564;fill-rule:evenodd;stroke:none;stroke-linejoin:round"
         inkscape:box3dsidetype="6"
         d="m 58.803934,-2314.784 v 51.1792 l 12.141086,-1.7048 v -46.2761 z"
         points="58.803934,-2263.6048 70.94502,-2265.3096 70.94502,-2311.5857 58.803934,-2314.784 " />
      <path
         sodipodi:type="inkscape:box3dside"
         id="path125"
         style="fill:#e9e9ff;fill-rule:evenodd;stroke:none;stroke-linejoin:round"
         inkscape:box3dsidetype="11"
         d="m 70.94502,-2311.5857 14.454461,-28.7939 v 60.4988 l -14.454461,14.5712 z"
         points="85.399481,-2340.3796 85.399481,-2279.8808 70.94502,-2265.3096 70.94502,-2311.5857 " />
      <path
         sodipodi:type="inkscape:box3dside"
         id="path117"
         style="fill:#4d4d9f;fill-rule:evenodd;stroke:none;stroke-linejoin:round"
         inkscape:box3dsidetype="5"
         d="m 58.803934,-2314.784 12.258265,-34.0403 14.337282,8.4447 -14.454461,28.7939 z"
         points="71.062199,-2348.8243 85.399481,-2340.3796 70.94502,-2311.5857 58.803934,-2314.784 " />
      <path
         sodipodi:type="inkscape:box3dside"
         id="path123"
         style="fill:#afafde;fill-rule:evenodd;stroke:none;stroke-linejoin:round"
         inkscape:box3dsidetype="13"
         d="m 58.803934,-2263.6048 12.258265,-16.0585 14.337282,-0.2175 -14.454461,14.5712 z"
         points="71.062199,-2279.6633 85.399481,-2279.8808 70.94502,-2265.3096 58.803934,-2263.6048 " />
      <path
         sodipodi:type="inkscape:box3dside"
         id="path121"
         style="fill:#d7d7ff;fill-rule:evenodd;stroke:none;stroke-linejoin:round"
         inkscape:box3dsidetype="14"
         d="m 71.062199,-2348.8243 v 69.161 l 14.337282,-0.2175 v -60.4988 z"
         points="71.062199,-2279.6633 85.399481,-2279.8808 85.399481,-2340.3796 71.062199,-2348.8243 " />
      <path
         sodipodi:type="inkscape:box3dside"
         id="path119"
         style="fill:#8686bf;fill-rule:evenodd;stroke:none;stroke-linejoin:round"
         inkscape:box3dsidetype="3"
         d="m 58.803934,-2314.784 12.258265,-34.0403 v 69.161 l -12.258265,16.0585 z"
         points="71.062199,-2348.8243 71.062199,-2279.6633 58.803934,-2263.6048 58.803934,-2314.784 " />
    </g>
    <g
       sodipodi:type="inkscape:box3d"
       id="g127"
       style="fill:#1a1a1a;fill-opacity:0.00092283"
       inkscape:perspectiveID="#perspective8128"
       inkscape:corner0="0.78932545 : 0.20898931 : 0 : 1"
       inkscape:corner7="0.11925482 : 0.18195139 : 0.31833621 : 1">
      <path
         sodipodi:type="inkscape:box3dside"
         id="path129"
         style="fill:#353564;fill-rule:evenodd;stroke:none;stroke-linejoin:round"
         inkscape:box3dsidetype="6"
         d="m 275.50637,-3000.5955 v 57.1112 l 65.99726,-15.6984 v -48.4853 z"
         points="275.50637,-2943.4843 341.50363,-2959.1827 341.50363,-3007.668 275.50637,-3000.5955 " />
      <path
         sodipodi:type="inkscape:box3dside"
         id="path139"
         style="fill:#e9e9ff;fill-rule:evenodd;stroke:none;stroke-linejoin:round"
         inkscape:box3dsidetype="11"
         d="m 341.50363,-3007.668 111.81052,-93.3362 v 71.0845 l -111.81052,70.737 z"
         points="453.31415,-3101.0042 453.31415,-3029.9197 341.50363,-2959.1827 341.50363,-3007.668 " />
      <path
         sodipodi:type="inkscape:box3dside"
         id="path131"
         style="fill:#4d4d9f;fill-rule:evenodd;stroke:none;stroke-linejoin:round"
         inkscape:box3dsidetype="5"
         d="m 275.50637,-3000.5955 104.10047,-115.6487 73.70731,15.24 -111.81052,93.3362 z"
         points="379.60684,-3116.2442 453.31415,-3101.0042 341.50363,-3007.668 275.50637,-3000.5955 " />
      <path
         sodipodi:type="inkscape:box3dside"
         id="path137"
         style="fill:#afafde;fill-rule:evenodd;stroke:none;stroke-linejoin:round"
         inkscape:box3dsidetype="13"
         d="m 275.50637,-2943.4843 104.10047,-81.4576 73.70731,-4.9778 -111.81052,70.737 z"
         points="379.60684,-3024.9419 453.31415,-3029.9197 341.50363,-2959.1827 275.50637,-2943.4843 " />
      <path
         sodipodi:type="inkscape:box3dside"
         id="path135"
         style="fill:#d7d7ff;fill-rule:evenodd;stroke:none;stroke-linejoin:round"
         inkscape:box3dsidetype="14"
         d="m 379.60684,-3116.2442 v 91.3023 l 73.70731,-4.9778 v -71.0845 z"
         points="379.60684,-3024.9419 453.31415,-3029.9197 453.31415,-3101.0042 379.60684,-3116.2442 " />
      <path
         sodipodi:type="inkscape:box3dside"
         id="path133"
         style="fill:#8686bf;fill-rule:evenodd;stroke:none;stroke-linejoin:round"
         inkscape:box3dsidetype="3"
         d="m 275.50637,-3000.5955 104.10047,-115.6487 v 91.3023 l -104.10047,81.4576 z"
         points="379.60684,-3116.2442 379.60684,-3024.9419 275.50637,-2943.4843 275.50637,-3000.5955 " />
    </g>
    <g
       sodipodi:type="inkscape:box3d"
       id="g141"
       style="fill:#1a1a1a;fill-opacity:0.00092283"
       inkscape:perspectiveID="#perspective8128"
       inkscape:corner0="-0.1107209 : 0.18625531 : 0 : 1"
       inkscape:corner7="-0.11531737 : 0.18304977 : 0.25 : 1">
      <path
         sodipodi:type="inkscape:box3dside"
         id="path143"
         style="fill:#353564;fill-rule:evenodd;stroke:none;stroke-linejoin:round"
         inkscape:box3dsidetype="6"
         d="m 451.49633,-3099.4867 v 13.6238 l 57.26629,8.4355 v -10.6343 z"
         points="451.49633,-3085.8629 508.76262,-3077.4274 508.76262,-3088.0617 451.49633,-3099.4867 " />
      <path
         sodipodi:type="inkscape:box3dside"
         id="path153"
         style="fill:#e9e9ff;fill-rule:evenodd;stroke:none;stroke-linejoin:round"
         inkscape:box3dsidetype="11"
         d="m 508.76262,-3088.0617 1.64928,-1.1368 v 10.6774 l -1.64928,1.0937 z"
         points="510.4119,-3089.1985 510.4119,-3078.5211 508.76262,-3077.4274 508.76262,-3088.0617 " />
      <path
         sodipodi:type="inkscape:box3dside"
         id="path145"
         style="fill:#4d4d9f;fill-rule:evenodd;stroke:none;stroke-linejoin:round"
         inkscape:box3dsidetype="5"
         d="m 451.49633,-3099.4867 1.81781,-1.5175 57.09776,11.8057 -1.64928,1.1368 z"
         points="453.31414,-3101.0042 510.4119,-3089.1985 508.76262,-3088.0617 451.49633,-3099.4867 " />
      <path
         sodipodi:type="inkscape:box3dside"
         id="path151"
         style="fill:#afafde;fill-rule:evenodd;stroke:none;stroke-linejoin:round"
         inkscape:box3dsidetype="13"
         d="m 451.49633,-3085.8629 1.81781,-1.4466 57.09776,8.7884 -1.64928,1.0937 z"
         points="453.31414,-3087.3095 510.4119,-3078.5211 508.76262,-3077.4274 451.49633,-3085.8629 " />
      <path
         sodipodi:type="inkscape:box3dside"
         id="path149"
         style="fill:#d7d7ff;fill-rule:evenodd;stroke:none;stroke-linejoin:round"
         inkscape:box3dsidetype="14"
         d="m 453.31414,-3101.0042 v 13.6947 l 57.09776,8.7884 v -10.6774 z"
         points="453.31414,-3087.3095 510.4119,-3078.5211 510.4119,-3089.1985 453.31414,-3101.0042 " />
      <path
         sodipodi:type="inkscape:box3dside"
         id="path147"
         style="fill:#8686bf;fill-rule:evenodd;stroke:none;stroke-linejoin:round"
         inkscape:box3dsidetype="3"
         d="m 451.49633,-3099.4867 1.81781,-1.5175 v 13.6947 l -1.81781,1.4466 z"
         points="453.31414,-3101.0042 453.31414,-3087.3095 451.49633,-3085.8629 451.49633,-3099.4867 " />
    </g>
    <g
       sodipodi:type="inkscape:box3d"
       id="g155"
       style="fill:#1a1a1a;fill-opacity:0.00092283"
       inkscape:perspectiveID="#perspective8128"
       inkscape:corner0="0.083440892 : 0.18452678 : 0 : 1"
       inkscape:corner7="-0.18532695 : 0.17916099 : 0.25 : 1">
      <path
         sodipodi:type="inkscape:box3dside"
         id="path157"
         style="fill:#353564;fill-rule:evenodd;stroke:none;stroke-linejoin:round"
         inkscape:box3dsidetype="6"
         d="m 388.79584,-3041.1163 v 18.7183 l 60.68316,-4.6915 v -15.2089 z"
         points="388.79584,-3022.398 449.479,-3027.0895 449.479,-3042.2984 388.79584,-3041.1163 " />
      <path
         sodipodi:type="inkscape:box3dside"
         id="path167"
         style="fill:#e9e9ff;fill-rule:evenodd;stroke:none;stroke-linejoin:round"
         inkscape:box3dsidetype="11"
         d="m 449.479,-3042.2984 87.81366,-59.2927 v 19.0482 l -87.81366,55.4534 z"
         points="537.29266,-3101.5911 537.29266,-3082.5429 449.479,-3027.0895 449.479,-3042.2984 " />
      <path
         sodipodi:type="inkscape:box3dside"
         id="path159"
         style="fill:#4d4d9f;fill-rule:evenodd;stroke:none;stroke-linejoin:round"
         inkscape:box3dsidetype="5"
         d="m 388.79584,-3041.1163 94.74127,-77.098 53.75555,16.6232 -87.81366,59.2927 z"
         points="483.53711,-3118.2143 537.29266,-3101.5911 449.479,-3042.2984 388.79584,-3041.1163 " />
      <path
         sodipodi:type="inkscape:box3dside"
         id="path165"
         style="fill:#afafde;fill-rule:evenodd;stroke:none;stroke-linejoin:round"
         inkscape:box3dsidetype="13"
         d="m 388.79584,-3022.398 94.74127,-70.9227 53.75555,10.7778 -87.81366,55.4534 z"
         points="483.53711,-3093.3207 537.29266,-3082.5429 449.479,-3027.0895 388.79584,-3022.398 " />
      <path
         sodipodi:type="inkscape:box3dside"
         id="path163"
         style="fill:#d7d7ff;fill-rule:evenodd;stroke:none;stroke-linejoin:round"
         inkscape:box3dsidetype="14"
         d="m 483.53711,-3118.2143 v 24.8936 l 53.75555,10.7778 v -19.0482 z"
         points="483.53711,-3093.3207 537.29266,-3082.5429 537.29266,-3101.5911 483.53711,-3118.2143 " />
      <path
         sodipodi:type="inkscape:box3dside"
         id="path161"
         style="fill:#8686bf;fill-rule:evenodd;stroke:none;stroke-linejoin:round"
         inkscape:box3dsidetype="3"
         d="m 388.79584,-3041.1163 94.74127,-77.098 v 24.8936 l -94.74127,70.9227 z"
         points="483.53711,-3118.2143 483.53711,-3093.3207 388.79584,-3022.398 388.79584,-3041.1163 " />
    </g>
    <path
       style="fill:#000000;fill-opacity:0.00092283;stroke-width:0.12240251"
       id="path169"
       sodipodi:type="arc"
       sodipodi:cx="35.93055"
       sodipodi:cy="-2018.8328"
       sodipodi:rx="9.0825815"
       sodipodi:ry="4.2036619"
       sodipodi:start="0"
       sodipodi:end="3.0585875"
       d="m 45.013131,-2018.8328 a 9.0825815,4.2036619 0 0 1 -8.705739,4.2001 9.0825815,4.2036619 0 0 1 -9.428153,-3.8515"
       sodipodi:open="true" />
    <path
       sodipodi:type="star"
       style="fill:#ffff00;fill-opacity:0.00092283;stroke-width:0.12240251"
       id="path171"
       sodipodi:sides="5"
       sodipodi:cx="14.280546"
       sodipodi:cy="-2024.2872"
       sodipodi:r1="7.1743331"
       sodipodi:r2="2.4596124"
       sodipodi:arg1="0.92918023"
       sodipodi:arg2="1.5574988"
       inkscape:flatsided="false"
       inkscape:rounded="0"
       inkscape:randomized="0"
       d="m 18.574319,-2018.5397 -4.261067,-3.2881 -4.172121,3.4003 1.810498,-5.0686 -4.5231555,-2.9172 5.3800175,0.1556 1.376657,-5.2032 1.514535,5.1648 5.373976,-0.2987 -4.443983,3.0365 z"
       inkscape:transform-center-x="0.029478503"
       inkscape:transform-center-y="-0.65696176" />
    <path
       sodipodi:type="star"
       style="fill:#ffff00;fill-opacity:0.00092283;stroke-width:0.12240251"
       id="path173"
       sodipodi:sides="5"
       sodipodi:cx="16.511951"
       sodipodi:cy="-2012.0822"
       sodipodi:r1="1.4127245"
       sodipodi:r2="0.48433137"
       sodipodi:arg1="1.2036225"
       sodipodi:arg2="1.831941"
       inkscape:flatsided="false"
       inkscape:rounded="0"
       inkscape:randomized="0"
       d="m 17.01909,-2010.7636 -0.632186,-0.8506 -0.972263,0.4218 0.61366,-0.8641 -0.701663,-0.7943 1.011449,0.3166 0.538611,-0.9128 0.01145,1.0598 1.034543,0.2302 -1.004372,0.3384 z"
       inkscape:transform-center-x="-0.11271318"
       inkscape:transform-center-y="-0.023281676" />
    <path
       sodipodi:type="star"
       style="fill:url(#linearGradient4691);fill-opacity:1;stroke-width:0.12240251"
       id="path175"
       sodipodi:sides="5"
       sodipodi:cx="17.762896"
       sodipodi:cy="-2010.3916"
       sodipodi:r1="0.86923289"
       sodipodi:r2="0.29800341"
       sodipodi:arg1="1.3352513"
       sodipodi:arg2="1.9635699"
       inkscape:flatsided="false"
       inkscape:rounded="0"
       inkscape:randomized="0"
       d="m 17.965751,-2009.5464 -0.316917,-0.5699 -0.627115,0.1788 0.444094,-0.4775 -0.363845,-0.5412 0.591382,0.2748 0.402246,-0.5132 -0.0786,0.6473 0.612447,0.224 -0.639959,0.1253 z"
       inkscape:transform-center-x="-0.0626859"
       inkscape:transform-center-y="0.021212577" />
    <path
       style="fill:#000000;fill-opacity:0.00092283;stroke-width:0.12240251"
       id="path4753"
       d="m 24.96598,-2015.7417 c 0.203629,-0.3089 0.362864,-0.6449 0.515297,-0.9812 0.217809,-0.5165 0.456397,-1.0244 0.671014,-1.5423 0.04803,-0.1154 0.09214,-0.2334 0.138199,-0.3502 0.200932,-0.5342 0.374388,-1.0851 0.45809,-1.6515 0.01397,-0.095 0.0211,-0.1897 0.03165,-0.2845 0.01717,-0.2328 0.01666,-0.4683 -0.01703,-0.6999 -0.02355,-0.1618 -0.06958,-0.3173 -0.119281,-0.4724 -0.0468,-0.1374 -0.104527,-0.2701 -0.134379,-0.412 -0.01708,-0.073 -0.0018,-0.1393 0.04232,-0.1988 0.444799,-0.2775 0.359902,-0.2725 0.719684,-0.2747 0.125491,0.019 0.259943,0.041 0.361355,0.1222 0.0071,0.015 0.01739,0.028 0.02118,0.043 0.02581,0.1058 -0.09427,0.1866 -0.16047,0.2436 -0.135766,0.1126 -0.284625,0.2137 -0.399435,0.3497 -0.02675,0.032 -0.05007,0.066 -0.0751,0.099 -0.161076,0.2281 -0.252323,0.4918 -0.332496,0.7566 -0.100749,0.3292 -0.149889,0.6698 -0.184513,1.0114 -0.02443,0.2477 -0.02771,0.496 -0.02757,0.7445 0,0 -0.419415,0.214 -0.419415,0.214 v 0 c -0.0023,-0.2485 -0.0023,-0.4969 0.0179,-0.7449 0.02942,-0.3431 0.07488,-0.6853 0.173205,-1.0167 0.07872,-0.268 0.166768,-0.5357 0.323144,-0.7703 0.06242,-0.089 0.07586,-0.1168 0.151032,-0.1946 0.09476,-0.098 0.208379,-0.1765 0.31328,-0.2629 0.03705,-0.032 0.17729,-0.1291 0.182712,-0.1832 9.08e-4,-0.014 -0.0049,-0.015 -0.0074,-0.022 -0.09666,-0.07 -0.224063,-0.087 -0.340037,-0.096 -0.0601,0 -0.120916,10e-4 -0.180604,0.014 -0.168211,0.023 -0.446826,0.2623 0.329661,-0.2185 -0.0565,0.033 -0.07844,0.089 -0.06611,0.1534 0.02378,0.1421 0.07741,0.2763 0.120106,0.4134 0.04764,0.1593 0.09265,0.3203 0.115394,0.4857 0.03253,0.2362 0.03017,0.4763 0.01195,0.7134 -0.01099,0.096 -0.01868,0.193 -0.03318,0.2889 -0.08608,0.5701 -0.260387,1.125 -0.46222,1.6633 -0.0457,0.1168 -0.08953,0.2351 -0.137181,0.3513 -0.02124,0.052 -0.262169,0.6092 -0.287789,0.6687 -0.342892,0.7964 0.06502,-0.1526 -0.254864,0.6021 -0.03765,0.089 -0.07653,0.1772 -0.11479,0.266 -0.14611,0.3331 -0.300173,0.6635 -0.484487,0.9775 0,0 -0.45889,0.1996 -0.45889,0.1996 z"
       inkscape:connector-curvature="0" />
    <path
       style="fill:#000000;fill-opacity:0.00092283;stroke-width:0.12240251"
       id="path4755"
       d="m 24.16292,-2018.7367 c -0.08021,0.2444 -0.178507,0.4825 -0.276505,0.7203 -0.105599,0.2541 -0.218574,0.5051 -0.340232,0.7521 -0.03054,0.077 -0.08705,0.1482 -0.09156,0.2309 -0.01962,0.3608 0.115875,0.7542 0.248507,1.0766 0.13826,0.3362 0.360588,0.7336 0.568638,1.0348 0.09043,0.1305 0.195955,0.2507 0.293928,0.376 0.06296,0.066 0.370095,0.4108 0.491506,0.4624 0.04643,0.019 0.190476,-0.053 0.149386,-0.025 -0.567468,0.4043 -0.304231,0.1333 -0.2262,0.033 0.02587,-0.033 0.04995,-0.067 0.07492,-0.1017 0.02212,-0.025 0.04201,-0.054 0.06636,-0.078 0.01989,-0.019 0.04131,-0.038 0.06573,-0.052 0.165132,-0.089 0.328185,-0.1857 0.501738,-0.2584 0.03775,-0.015 0.220376,0.059 0.259064,0.074 0.173225,0.077 0.349522,0.1463 0.533826,0.1914 0.154383,0.03 0.31279,0.045 0.470026,0.036 0.07483,-0.016 0.150862,-0.034 0.221524,-0.065 0.02706,-0.014 0.05305,-0.026 0.07895,-0.04 0.02831,-0.015 0.111877,-0.063 0.0837,-0.048 -0.111052,0.062 -0.221579,0.1236 -0.332366,0.1861 0.230204,-0.1586 0.440101,-0.3448 0.652413,-0.5261 0.211249,-0.1829 0.417676,-0.3716 0.614166,-0.5701 0.128293,-0.1291 0.18697,-0.232 0.216703,-0.4098 0.0329,-0.2254 -0.05054,-0.4144 -0.153504,-0.6091 -0.307825,-0.4734 -0.751222,-0.8347 -1.184229,-1.188 -0.630704,-0.4761 -1.284664,-0.9206 -1.92834,-1.3788 -0.374624,-0.2687 -0.746296,-0.5432 -1.089594,-0.8515 -0.09032,-0.093 -0.191313,-0.1828 -0.256933,-0.2971 -0.03062,-0.054 -0.03345,-0.071 -0.05257,-0.1278 -0.03756,-0.1809 -0.0341,-0.3666 -0.0023,-0.5478 0.05123,-0.2128 0.171541,-0.4009 0.323685,-0.5565 0.03877,-0.04 0.08106,-0.076 0.121603,-0.114 0.117633,-0.095 0.153295,-0.1305 0.285522,-0.2097 0.19142,-0.114 0.3834,-0.2279 0.578988,-0.3349 0.175593,-0.096 0.404588,-0.1698 0.593402,-0.238 0.393786,-0.1404 0.804868,-0.2167 1.212578,-0.3028 0.256655,-0.054 0.513259,-0.1044 0.765073,-0.1771 0,0 -0.388261,0.2987 -0.388261,0.2987 v 0 c -0.250714,0.069 -0.505921,0.1154 -0.760045,0.1691 -0.406021,0.085 -0.814573,0.1632 -1.205375,0.3059 -0.149367,0.055 -0.258722,0.093 -0.404254,0.1574 -0.06311,0.028 -0.237197,0.136 -0.186844,0.089 0.06878,-0.064 0.159776,-0.1003 0.244084,-0.1428 0.104362,-0.052 -0.39148,0.2288 -0.286262,0.2015 -0.207982,0.186 -0.374346,0.3618 -0.450572,0.6379 -0.0069,0.033 -0.01554,0.066 -0.0204,0.099 -0.02036,0.14 -0.0049,0.2851 0.0162,0.4238 0.0534,0.1759 0.161289,0.2792 0.287239,0.409 0.331479,0.3136 0.694903,0.5915 1.06229,0.8616 0.641257,0.462 1.289753,0.9138 1.924867,1.384 0.444104,0.3534 0.900381,0.7129 1.223204,1.1864 0.110366,0.1996 0.20243,0.3983 0.176575,0.6325 -0.02327,0.1895 -0.07282,0.3014 -0.20919,0.4407 -0.196749,0.2014 -0.405643,0.3908 -0.61764,0.576 -0.210372,0.1812 -0.418813,0.3658 -0.643425,0.5293 -0.170271,0.1016 -0.339885,0.2031 -0.510803,0.3032 -0.123347,0.071 -0.258718,0.1222 -0.401409,0.136 -0.15985,0 -0.320301,-0.014 -0.476099,-0.049 -0.184036,-0.05 -0.360241,-0.1209 -0.535774,-0.1953 -0.05377,-0.018 -0.11325,-0.041 -0.17038,-0.048 -0.02452,0 -0.09351,0.014 -0.07419,-6e-4 0.109322,-0.086 0.237656,-0.1475 0.355045,-0.2236 0.02337,-0.015 -0.05112,0.023 -0.07282,0.041 -0.02688,0.022 -0.04754,0.049 -0.07131,0.074 -0.224403,0.3019 -0.208207,0.3276 -0.691146,0.5486 -0.04671,0.022 -0.108648,0.014 -0.153317,-0.015 -0.125944,-0.071 -0.400516,-0.4008 -0.474578,-0.4838 -0.09545,-0.1291 -0.197934,-0.2524 -0.286359,-0.3859 -0.201477,-0.3041 -0.423977,-0.714 -0.566359,-1.0464 -0.122688,-0.2862 -0.298155,-0.75 -0.307912,-1.0803 -0.0023,-0.08 0.04798,-0.1524 0.07197,-0.2287 0.126411,-0.2456 0.242494,-0.4963 0.348189,-0.7517 0.09608,-0.2332 0.192655,-0.4671 0.265027,-0.709 0,0 0.45239,-0.2146 0.45239,-0.2146 z"
       inkscape:connector-curvature="0" />
    <path
       style="fill:#000000;fill-opacity:0.00092283;stroke-width:0.12240251"
       id="path4757"
       d="m 23.817836,-2019.6591 c 0.06397,0.067 0.131755,0.1318 0.200668,0.1937 0.03443,0.032 0.06397,0.069 0.104074,0.092 0.05827,0.033 0.259056,0.084 0.316639,0.1003 0.179604,0.045 0.356331,0.1016 0.527579,0.1725 0.05452,0.023 0.102921,0.066 0.161675,0.072 0.09069,0.014 0.378861,-0.087 0.452695,-0.1086 0.257325,-0.077 0.517735,-0.1636 0.787409,-0.1852 0.10781,-0.014 0.131219,0 0.233121,0.014 0.123856,0.015 0.230289,0.073 0.330743,0.1429 0.03812,0.027 0.0744,0.058 0.112042,0.085 0.0063,0 0.03646,0.033 0.04122,0.03 0.03599,-0.021 0.06404,-0.053 0.09945,-0.076 0.05353,-0.033 0.111231,-0.059 0.166573,-0.089 0.06114,-0.033 0.121933,-0.067 0.182903,-0.1003 -0.129076,0.077 0.458979,-0.2593 0.344942,-0.1933 -0.08819,0.051 -0.17547,0.1044 -0.265578,0.1517 -0.04418,0.023 0.08541,-0.052 0.127592,-0.078 0.09712,-0.062 0.117138,-0.077 0.208834,-0.141 0.162275,-0.114 0.305243,-0.2516 0.439761,-0.3966 0.08641,-0.096 0.166294,-0.1968 0.245175,-0.2986 0.04367,-0.056 0.08708,-0.1126 0.130904,-0.1691 0.03243,-0.037 0.05851,-0.078 0.08436,-0.1195 0.03683,-0.054 0.07193,-0.1072 0.09918,-0.1664 0.02124,-0.052 0.05,-0.1003 0.08262,-0.1467 0.03308,-0.045 0.06863,-0.088 0.104129,-0.1319 0.03849,-0.052 0.08391,-0.096 0.134736,-0.136 0.198355,-0.146 0.402409,-0.2802 0.642276,-0.3247 0.106505,-0.015 0.214199,-0.019 0.321541,-0.025 0.103484,-0.014 0.206951,-0.014 0.310406,-0.015 0.08211,-0.014 0.164237,-0.014 0.246348,-0.014 0.121383,-0.014 0.242744,-0.014 0.364061,-0.021 0.11435,-0.014 0.228542,-3e-4 0.342545,0.014 0.147046,0.014 0.294822,0.015 0.442269,0.022 0.14749,0 0.294812,0 0.442235,0.014 0.138807,0.014 0.277599,0.014 0.416302,0.018 0.168071,0.014 0.336314,0.014 0.504566,0.014 0.171443,0 0.342882,0.014 0.514353,0.014 0.177611,0 0.355147,0 0.532739,0 0.183412,10e-5 0.366778,0 0.550162,0.014 0.162349,0 0.324659,0 0.487013,-4e-4 0.138759,-4e-4 0.27756,0 0.416302,0 0.132853,6e-4 0.265766,0 0.398614,0 0.146805,-4e-4 0.293618,2e-4 0.440422,0 0.163514,6e-4 0.327001,0 0.490515,0.014 0.222154,-0.014 0.444318,-0.014 0.666489,-0.014 0.248947,3e-4 0.497926,0 0.746822,0 0.258454,0 0.516834,0 0.775205,0.014 0.239102,0 0.478205,0.014 0.717321,0.014 0.188232,6e-4 0.375641,0.019 0.563526,0.027 0.14569,0.014 0.291695,0.014 0.437365,0.022 0.13236,0.014 0.26383,0.022 0.394831,0.04 0.12255,0.018 0.243192,0.044 0.360995,0.082 0.118718,0.041 0.217058,0.1182 0.311442,0.1988 0.113099,0.098 0.215991,0.2057 0.316171,0.3161 0.08446,0.093 0.151023,0.1998 0.215515,0.307 0.05932,0.091 0.09495,0.1921 0.132414,0.2928 0.02948,0.096 0.07322,0.1865 0.117591,0.2764 0.02558,0.06 0.05752,0.1195 0.08215,0.181 0.01458,0.051 0.02798,0.1017 0.04447,0.1511 0.02073,0.066 0.0305,0.1333 0.04043,0.2003 0.0078,0.072 0.02489,0.14 0.02364,0.211 -0.0085,0.073 -0.053,0.1347 -0.100351,0.1888 -0.06296,0.062 -0.133596,0.114 -0.204096,0.167 -0.216118,0.1414 -0.438219,0.2766 -0.672876,0.385 -0.103264,0.052 -0.216736,0.081 -0.327779,0.1126 -0.159669,0.047 -0.316799,0.1003 -0.472689,0.1574 -0.151589,0.054 -0.305124,0.1031 -0.460408,0.1452 -0.162145,0.05 -0.328361,0.078 -0.495152,0.1058 -0.25292,0.041 -0.506488,0.08 -0.760253,0.1154 -0.239226,0.037 -0.478509,0.073 -0.717648,0.1099 -0.165407,0.03 -0.331692,0.054 -0.497986,0.077 -0.163858,0.029 -0.328713,0.05 -0.494024,0.066 -0.173932,0.017 -0.348215,0.03 -0.522425,0.044 -0.181117,0.014 -0.362258,0.027 -0.54339,0.041 -0.228499,0.016 -0.456817,0.036 -0.685552,0.049 -0.296768,0.014 -0.593843,0.018 -0.890861,0.022 -0.323457,0.014 -0.646905,8e-4 -0.970371,-10e-4 -0.292092,3e-4 -0.584044,0.014 -0.876005,0.018 -0.248181,0 -0.496346,0.014 -0.744524,0.014 -0.201603,0 -0.403002,-0.014 -0.604534,-0.014 -0.184749,-4e-4 -0.369507,0 -0.554242,0 -0.210896,0 -0.42133,-0.014 -0.631332,-0.029 -0.316006,-0.027 -0.628642,-0.081 -0.939423,-0.1435 -0.418818,-0.091 -0.833463,-0.1988 -1.244773,-0.3187 -0.17488,-0.055 -0.240911,-0.073 -0.413105,-0.1319 -0.06785,-0.022 -0.132098,-0.061 -0.202804,-0.071 -0.08076,-0.014 -0.163764,0 -0.245658,0 -0.522458,0 0.0091,0.014 -0.492657,0 -0.07178,-0.014 -0.144843,-0.014 -0.215342,-0.029 -0.225872,-0.052 -0.421755,-0.1857 -0.564646,-0.366 -0.03151,-0.04 -0.05765,-0.084 -0.08649,-0.125 -0.16104,-0.2672 -0.266346,-0.5598 -0.352996,-0.8577 -0.0809,-0.2804 -0.108346,-0.5705 -0.12446,-0.8605 -0.0058,-0.211 -0.023,-0.4242 0.01126,-0.634 0.0063,-0.038 0.0162,-0.077 0.02429,-0.1154 0.01154,-0.038 -0.0014,-0.096 0.03443,-0.114 0.206139,-0.098 0.424382,-0.1836 0.650785,-0.2088 0.109308,-0.014 0.209542,0.067 0.31421,0.1003 0.110613,0.036 0.220445,0.074 0.33165,0.1071 0.288557,0.088 0.315441,0.089 0.597761,0.1544 0.2095,0.043 0.423098,0.066 0.636996,0.051 0.161215,-0.014 0.31916,-0.047 0.476609,-0.081 0.306728,-0.08 0.616048,-0.1491 0.927223,-0.2095 0.427117,-0.074 0.859032,-0.1154 1.290582,-0.1539 0.579005,-0.048 1.158669,-0.087 1.738168,-0.1277 0.779137,-0.055 1.558075,-0.1127 2.336967,-0.1717 0.947616,-0.072 1.894926,-0.1454 2.842213,-0.2204 0.83064,-0.066 1.66112,-0.1346 2.491565,-0.2025 0.560325,-0.052 1.121612,-0.086 1.684044,-0.103 0.431664,-0.018 0.863431,-0.021 1.29515,-0.014 0.373126,0.014 0.743705,0.052 1.109623,0.1236 0.312525,0.066 0.585459,0.1953 0.854724,0.362 0.109487,0.078 0.219034,0.16 0.313567,0.2566 0.08484,0.086 0.154202,0.186 0.222327,0.2856 0.113869,0.1782 0.146546,0.382 0.163456,0.5885 0.03032,0.2585 -0.059,0.4357 -0.193735,0.6474 -0.14253,0.2266 -0.335365,0.4087 -0.543199,0.5741 -0.297013,0.2046 -0.608173,0.3928 -0.935651,0.5446 -0.141738,0.066 -0.202861,0.086 -0.351325,0.1423 -0.492505,0.1668 -1.004389,0.2657 -1.514446,0.3613 -0.630972,0.1071 -1.262777,0.2085 -1.893915,0.3146 -0.642983,0.1181 -1.291772,0.1976 -1.941766,0.265 -0.68188,0.065 -1.364445,0.1236 -2.047943,0.168 -0.851371,0.045 -1.704136,0.051 -2.556477,0.048 -1.059709,0 -2.119135,-0.027 -3.177494,-0.081 -0.617769,-0.036 -1.235709,-0.073 -1.851859,-0.1305 -0.121617,-0.014 -0.242614,-0.047 -0.364497,-0.038 -0.139232,0.014 -0.272642,0.061 -0.408963,0.089 -0.525602,0.1502 -1.041899,0.348 -1.590104,0.3999 -0.287609,0.027 -0.3541,0.014 -0.633276,-0.014 -0.323388,-0.039 -0.630296,-0.1496 -0.911897,-0.312 -0.14789,-0.085 -0.200117,-0.1305 -0.335258,-0.2319 -0.254992,-0.2091 -0.477589,-0.455 -0.656282,-0.7323 -0.03683,-0.058 -0.06998,-0.1168 -0.104967,-0.1749 -0.146892,-0.2605 -0.269811,-0.5382 -0.362313,-0.8229 -0.05129,-0.1578 -0.07823,-0.283 -0.117,-0.4437 -0.06593,-0.3436 -0.118718,-0.695 -0.113457,-1.0458 9.08e-4,-0.067 0.0077,-0.1346 0.01154,-0.2017 0.02419,-0.313 0.110558,-0.6165 0.249869,-0.8978 0.02808,-0.056 0.06,-0.1113 0.09001,-0.1674 0.120215,-0.202 0.255257,-0.3972 0.416444,-0.5692 0.09771,-0.1044 0.124392,-0.1223 0.231316,-0.216 0.205747,-0.1714 0.440488,-0.3021 0.665276,-0.446 0.399078,-0.2503 0.406712,-0.3587 1.113013,-0.188 0.199775,0.048 0.350104,0.2154 0.525156,0.323 0.712505,0.4246 1.410855,0.8829 2.169686,1.2226 0.17583,0.076 0.299739,0.092 0.478834,0.038 0.135519,-0.047 0.277002,-0.069 0.417283,-0.093 0.196837,-0.034 0.395414,-0.055 0.594471,-0.07 0.176826,-0.014 0.353885,-0.021 0.530912,-0.029 0.08476,-0.014 0.169492,-0.014 0.254258,-0.014 0.08997,0 0.179812,-0.014 0.269873,-0.014 0.142816,0.014 0.285595,0.014 0.428518,0.015 0.163362,0 0.326567,-0.014 0.489637,-0.015 0.169597,-0.014 0.339121,-0.021 0.508658,-0.03 0.211942,-0.014 0.423912,-0.027 0.635839,-0.041 0.256692,-0.018 0.513328,-0.036 0.770381,-0.047 0.268722,-0.014 0.537591,0 0.806337,0 0.28408,0 0.56808,0.014 0.852219,0.014 0.248461,0 0.496899,0 0.745347,9e-4 0.226634,0 0.453222,0.014 0.679877,0.014 0.21524,0 0.430512,0.014 0.645776,0.014 0.218502,0 0.436373,0.014 0.653955,0.03 0.248989,0.014 0.49658,0.04 0.743607,0.073 0.274434,0.033 0.544014,0.092 0.810286,0.1648 0.256544,0.073 0.503796,0.1734 0.737486,0.3013 0.215071,0.1154 0.399694,0.2739 0.576176,0.44 0.159512,0.1373 0.298073,0.295 0.431294,0.4571 0.09259,0.1086 0.1606,0.2326 0.226576,0.3582 0.05944,0.114 0.0906,0.2378 0.109294,0.3647 0.016,0.1412 0.01995,0.2834 0.02743,0.4253 0.01915,0.1693 0.0066,0.3378 -0.01915,0.5057 -0.02378,0.1832 -0.106465,0.3447 -0.198299,0.5017 -0.09123,0.1578 -0.204887,0.3007 -0.319599,0.4416 -0.112797,0.1292 -0.231839,0.2533 -0.359893,0.3676 -0.125134,0.1058 -0.257863,0.202 -0.394822,0.2918 -0.276172,0.1664 -0.548602,0.341 -0.841286,0.4773 -0.167252,0.073 -0.340981,0.1291 -0.516625,0.1777 -0.222545,0.059 -0.448148,0.1058 -0.672377,0.1581 -0.257225,0.058 -0.515266,0.1141 -0.770228,0.1812 -0.174978,0.048 -0.351802,0.089 -0.525202,0.1432 -0.115091,0.038 -0.233066,0.066 -0.35085,0.093 -0.134021,0.032 -0.268113,0.063 -0.403689,0.088 -0.157681,0.026 -0.316043,0.048 -0.475128,0.063 -0.199693,0.018 -0.399777,0.032 -0.599756,0.047 -0.167187,0.014 -0.334175,0.025 -0.500058,0.05 -0.127359,0.018 -0.254124,0.038 -0.381842,0.055 -0.172224,0.018 -0.345033,0.03 -0.517778,0.041 -0.201995,0.014 -0.403998,0.027 -0.60603,0.04 -0.258433,0.015 -0.516946,-0.014 -0.774447,-0.025 -0.445165,-0.041 -0.887668,-0.1085 -1.33003,-0.1721 -0.522227,-0.071 -1.040152,-0.1684 -1.554989,-0.2811 -0.160493,0.05 -0.314963,-0.1615 -0.473217,-0.1222 -0.258726,0.063 -0.355892,0.2008 -0.551527,0.3154 -0.905256,0.5305 -0.621701,0.3835 -1.332884,0.7103 -0.135436,0.043 -0.267548,0.098 -0.406322,0.1278 -0.312057,0.067 -0.629946,0.037 -0.910808,-0.1181 -0.19118,-0.1072 -0.267582,-0.205 -0.419878,-0.358 -0.382649,-0.4541 -0.658382,-0.9834 -0.904146,-1.5205 -0.230628,-0.4936 -0.354754,-1.0236 -0.479172,-1.5509 -0.08318,-0.3903 -0.161798,-0.7821 -0.214846,-1.1779 -0.03544,-0.2644 -0.04103,-0.3563 -0.06518,-0.621 -0.0246,-0.3979 -0.05058,-0.7971 -0.04888,-1.1959 9.08e-4,-0.2269 0.01168,-0.3341 0.02679,-0.5592 0.04363,-0.4141 0.118141,-0.826 0.25659,-1.2198 0.02466,-0.07 0.05334,-0.1387 0.08002,-0.2079 0.0027,-0.014 0.162242,-0.3594 0.180123,-0.3637 0.303684,-0.071 0.62488,-0.1112 0.93363,-0.066 0.249508,0.036 0.462947,0.1999 0.693241,0.3025 0.454879,0.2026 0.907058,0.4114 1.361239,0.6157 0.538378,0.2181 1.072888,0.4807 1.648388,0.5902 0.185683,0.036 0.243831,0.03 0.423995,0.033 0.310396,-0.016 0.610922,-0.1016 0.914417,-0.1622 0.324291,-0.062 0.65154,-0.1072 0.979388,-0.1456 0.395298,-0.041 0.792367,-0.063 1.189055,-0.085 0.453495,-0.023 0.906463,-0.056 1.360164,-0.076 0.445353,-0.018 0.890328,-0.018 1.335419,0 0.468451,0.026 0.934463,0.081 1.40149,0.1237 0.486458,0.038 0.974012,0.058 1.461816,0.067 0.423089,0 0.846125,0.014 1.268571,0.036 0.267974,0.014 0.531484,0.058 0.793459,0.1127 0.122276,0.029 0.245982,0.052 0.366486,0.088 0,0 -0.41266,0.282 -0.41266,0.282 v 0 c -0.118223,-0.034 -0.238838,-0.06 -0.358779,-0.089 -0.257441,-0.055 -0.516907,-0.099 -0.780455,-0.1126 -0.41996,-0.026 -0.840459,-0.034 -1.261132,-0.039 -0.488483,-0.014 -0.976731,-0.032 -1.463883,-0.07 -0.466876,-0.044 -0.932978,-0.098 -1.40146,-0.1209 -0.444445,-0.019 -0.888704,-0.018 -1.333303,-10e-5 -0.453894,0.019 -0.9071,0.052 -1.360717,0.077 -0.397587,0.023 -0.795518,0.047 -1.191476,0.091 -0.32794,0.04 -0.655298,0.087 -0.979556,0.1506 -0.303346,0.062 -0.605186,0.147 -0.91697,0.1498 -0.180993,-0.014 -0.233482,-0.014 -0.418966,-0.049 -0.561926,-0.1291 -1.078825,-0.4044 -1.60537,-0.6284 -0.335415,-0.1557 -1.026497,-0.4798 -1.354386,-0.6186 -0.235633,-0.1002 -0.51075,-0.1263 -0.713546,-0.2829 -0.105462,-0.081 -0.03873,-0.2877 -0.140132,-0.3738 -0.102769,-0.087 -0.09281,0.4495 -0.185472,0.3595 -0.07414,0.1872 -0.09348,0.2253 -0.152877,0.4188 -0.09999,0.3256 -0.157862,0.6613 -0.196464,0.9994 -0.01628,0.2198 -0.02831,0.3348 -0.0305,0.5564 -0.0037,0.3982 0.02206,0.7967 0.04502,1.194 0.02337,0.2664 0.02794,0.3529 0.06355,0.6189 0.05275,0.394 0.133609,0.7834 0.218344,1.1717 0.123897,0.5244 0.245476,1.0518 0.473074,1.5438 0.239806,0.5335 0.512537,1.0595 0.896189,1.5054 0.149068,0.1469 0.223768,0.2417 0.41001,0.3424 0.271167,0.1465 0.577641,0.17 0.87621,0.1044 0.134338,-0.03 0.262304,-0.082 0.393457,-0.125 0.14822,-0.069 0.418058,-0.1823 0.592481,-0.2845 0.293845,-0.172 0.580348,-0.3568 0.878676,-0.5211 0.148797,-0.081 0.295449,-0.1797 0.461292,-0.2162 0.158197,-0.036 0.310198,0.1662 0.470553,0.1222 0.51366,0.1127 1.03041,0.2086 1.551666,0.2792 0.445443,0.062 0.891158,0.1264 1.339698,0.1613 0.258635,0.018 0.51832,0.033 0.777403,0.014 0.201837,-0.014 0.403699,-0.026 0.605458,-0.04 0.173512,-0.014 0.347199,-0.025 0.519957,-0.047 0.127373,-0.016 0.253994,-0.038 0.381461,-0.055 0.165509,-0.019 0.331706,-0.033 0.498126,-0.044 0.200414,-0.015 0.400844,-0.029 0.600726,-0.049 0.158656,-0.016 0.316702,-0.04 0.473851,-0.069 0.13534,-0.026 0.269691,-0.058 0.403755,-0.091 0.117125,-0.029 0.23326,-0.06 0.34824,-0.096 0.172716,-0.05 0.34743,-0.091 0.520947,-0.1375 0.25577,-0.063 0.513267,-0.1209 0.770217,-0.1799 0.22495,-0.052 0.451313,-0.099 0.67377,-0.1621 0.174714,-0.052 0.347931,-0.1085 0.513295,-0.1857 0.158129,-0.077 0.469235,-0.2588 -0.209814,0.1319 -0.0228,0.014 0.04529,-0.027 0.06774,-0.041 0.02202,-0.014 0.04363,-0.028 0.06573,-0.041 0.02206,-0.014 0.04455,-0.026 0.06679,-0.038 0.138722,-0.087 0.271689,-0.1823 0.398722,-0.2856 0.130683,-0.1099 0.247946,-0.2341 0.363264,-0.3601 0.115655,-0.1386 0.230198,-0.2797 0.323318,-0.4347 0.09076,-0.1523 0.180609,-0.3058 0.205606,-0.485 0.02813,-0.1639 0.04279,-0.3293 0.02235,-0.4952 -0.0076,-0.1404 -0.0125,-0.2809 -0.02665,-0.4209 -0.01642,-0.1223 -0.04473,-0.2396 -0.101492,-0.3496 -0.0637,-0.1223 -0.128787,-0.2447 -0.218158,-0.3513 -0.130656,-0.1611 -0.26661,-0.3184 -0.424647,-0.4536 -0.173942,-0.1631 -0.356457,-0.318 -0.568487,-0.43 -0.231473,-0.125 -0.476206,-0.222 -0.729733,-0.2929 -0.265305,-0.071 -0.534149,-0.1277 -0.807255,-0.159 -0.247091,-0.032 -0.495007,-0.055 -0.743768,-0.069 -0.217189,-0.016 -0.434687,-0.029 -0.65262,-0.027 -0.21537,-10e-5 -0.430753,0 -0.646096,-0.014 -0.22605,0 -0.452043,-0.014 -0.678109,-0.014 -0.247859,0 -0.495695,0 -0.743565,0 -0.28426,3e-4 -0.56837,-0.014 -0.852583,-0.014 -0.268494,0 -0.53714,-0.014 -0.805544,0 -0.257186,0.014 -0.513989,0.03 -0.770814,0.049 -0.212959,0.015 -0.42589,0.03 -0.638911,0.044 -0.170052,0.014 -0.34012,0.022 -0.510315,0.032 -0.163848,0.014 -0.327889,0.015 -0.491992,0.014 -0.14332,0 -0.286512,-0.014 -0.42987,-0.014 -0.09069,0 -0.181218,0.014 -0.271856,0.014 -0.08336,0 -0.166762,0.014 -0.250136,0.014 -0.175496,0.014 -0.351015,0.015 -0.526175,0.027 -0.198789,0.016 -0.397042,0.038 -0.593263,0.076 -0.141012,0.026 -0.281433,0.055 -0.418494,0.099 -0.182204,0.039 -0.31415,0.014 -0.483063,-0.078 -0.733804,-0.3732 -1.412408,-0.8443 -2.123391,-1.2576 -0.180849,-0.1031 -0.421044,-0.1403 -0.542552,-0.3094 -0.08344,-0.1168 0.02919,-0.2868 0.01209,-0.4288 -0.0027,-0.023 -0.0389,0.029 -0.05873,0.043 -0.07686,0.054 -0.156732,0.1031 -0.236303,0.1525 -0.226192,0.1445 -0.46176,0.2757 -0.673099,0.4418 -0.1113,0.093 -0.132552,0.1058 -0.234661,0.2105 -0.164227,0.1681 -0.301603,0.3604 -0.424073,0.5605 -0.07821,0.1412 -0.105778,0.1824 -0.168993,0.3303 -0.09729,0.2278 -0.159411,0.4697 -0.181283,0.7166 -0.0047,0.066 -0.01209,0.1319 -0.0136,0.1979 -0.0084,0.3481 0.04377,0.6973 0.105915,1.0384 0.03904,0.1661 0.06147,0.2762 0.113965,0.4392 0.09078,0.282 0.213662,0.5564 0.360915,0.813 0.03456,0.058 0.06731,0.1154 0.103758,0.172 0.176713,0.2725 0.396788,0.514 0.648414,0.7191 0.13137,0.099 0.185003,0.1443 0.328597,0.2268 0.275474,0.1586 0.576234,0.2635 0.892142,0.3021 0.273387,0.018 0.338178,0.033 0.619906,0.014 0.544818,-0.055 1.057878,-0.2525 1.581993,-0.3971 0.141378,-0.027 0.280285,-0.076 0.424139,-0.082 0.120105,-0.014 0.238847,0.029 0.358486,0.041 0.611398,0.063 1.225166,0.1017 1.838555,0.1385 1.05925,0.055 2.119694,0.078 3.18038,0.077 0.856418,0 1.713193,-0.014 2.568418,-0.06 0.684178,-0.048 1.367741,-0.1058 2.050352,-0.1719 0.649676,-0.069 1.298007,-0.1497 1.940777,-0.268 0.631738,-0.1071 1.264914,-0.2055 1.895896,-0.3172 0.512452,-0.099 1.027384,-0.2007 1.520112,-0.3765 0.155566,-0.062 0.203914,-0.077 0.351736,-0.1487 0.05058,-0.025 0.196251,-0.1085 0.149789,-0.077 -0.09031,0.06 -0.187252,0.1127 -0.281858,0.1664 -0.08094,0.047 0.322472,-0.1926 0.236363,-0.1502 0.208793,-0.1596 0.403556,-0.3361 0.547664,-0.5585 0.133884,-0.1992 0.233246,-0.3678 0.20491,-0.6168 -0.01554,-0.198 -0.0416,-0.395 -0.149733,-0.5671 -0.145491,-0.2154 -0.300955,-0.384 -0.521312,-0.5268 -0.265034,-0.1628 -0.535057,-0.287 -0.841934,-0.3495 -0.363525,-0.07 -0.73138,-0.1113 -1.101714,-0.1195 -0.429866,-0.015 -0.859648,-0.014 -1.289495,0.014 -0.557531,0.015 -1.113998,0.048 -1.669724,0.096 -0.826099,0.063 -1.652196,0.1277 -2.478219,0.1924 -0.949083,0.074 -1.898183,0.1489 -2.847227,0.2239 -0.782557,0.061 -1.565163,0.1209 -2.347932,0.1796 -0.582684,0.044 -1.165543,0.085 -1.7477,0.136 -0.433014,0.041 -0.86653,0.084 -1.294517,0.1629 -0.311799,0.063 -0.621073,0.136 -0.929851,0.2121 -0.158384,0.032 -0.316671,0.065 -0.478778,0.072 -0.213168,0.014 -0.424925,-0.021 -0.632291,-0.069 -0.302371,-0.076 -0.279638,-0.066 -0.592784,-0.1621 -0.111396,-0.034 -0.221392,-0.073 -0.333094,-0.1058 -0.106299,-0.032 -0.28096,0.015 -0.320777,-0.088 -0.03937,-0.1017 0.108909,-0.1922 0.181408,-0.2745 0.02544,-0.029 -0.02419,0.073 -0.03628,0.1099 -0.02456,0.1058 -0.03127,0.1195 -0.04261,0.2272 -0.01786,0.1704 -0.0037,0.3417 -0.0014,0.5123 0.01383,0.2868 0.039,0.5741 0.117798,0.8516 0.08204,0.2939 0.187696,0.5808 0.345344,0.8436 0.02776,0.04 0.05301,0.082 0.08326,0.1195 0.136549,0.1717 0.322528,0.2949 0.538447,0.3423 0.06889,0.015 0.140004,0.018 0.210009,0.026 0.07865,0 0.157251,0.014 0.235919,0.014 0.122674,9e-4 0.391733,-0.014 0.51343,0.014 0.07036,0.014 0.134832,0.048 0.202527,0.071 0.189736,0.065 0.217682,0.072 0.410856,0.1319 0.411633,0.1181 0.826524,0.226 1.246169,0.3124 0.312502,0.058 0.626675,0.1113 0.944086,0.1332 0.210484,0.015 0.421228,0.025 0.632379,0.023 0.184748,0 0.369502,0 0.554255,0 0.200413,0.014 0.400785,0.014 0.601272,0.014 0.247397,0 0.494808,0 0.742193,-0.014 0.291152,-0.014 0.582308,-0.014 0.873576,-0.014 0.323508,0 0.647011,0.014 0.970501,-5e-4 0.297504,0 0.595073,-0.014 0.892216,-0.026 0.229943,-0.015 0.459547,-0.036 0.689305,-0.052 0.181352,-0.014 0.362702,-0.029 0.544046,-0.042 0.174135,-0.014 0.348271,-0.028 0.522014,-0.045 0.165056,-0.018 0.329578,-0.041 0.493397,-0.069 0.165236,-0.025 0.330587,-0.048 0.495308,-0.076 0.238174,-0.036 0.476308,-0.072 0.714449,-0.1072 0.254572,-0.036 0.509058,-0.074 0.762473,-0.1181 0.167164,-0.03 0.333112,-0.065 0.495947,-0.1127 0.153619,-0.044 0.306423,-0.091 0.456254,-0.1469 0.157259,-0.058 0.316101,-0.1086 0.476617,-0.1562 0.110887,-0.033 0.22244,-0.066 0.324966,-0.1209 0.157486,-0.078 0.388483,-0.22 -0.303579,0.1817 -0.01305,0.014 0.02609,-0.015 0.03914,-0.023 0.05367,-0.032 0.02692,-0.015 0.08024,-0.047 0.07072,-0.051 0.139342,-0.1044 0.206524,-0.159 0.04741,-0.043 0.0937,-0.096 0.113237,-0.1581 0.01565,-0.065 -0.01503,-0.1346 -0.01717,-0.1997 -0.0093,-0.065 -0.01841,-0.1292 -0.03742,-0.1922 -0.016,-0.05 -0.03271,-0.098 -0.04338,-0.1488 -0.02257,-0.06 -0.05437,-0.1181 -0.07771,-0.1786 -0.04418,-0.092 -0.08929,-0.1834 -0.119213,-0.2811 -0.03673,-0.098 -0.06961,-0.1972 -0.127413,-0.2851 -0.0624,-0.1044 -0.126617,-0.2091 -0.208857,-0.2997 -0.09832,-0.1099 -0.19994,-0.2156 -0.312988,-0.3099 -0.09159,-0.075 -0.186705,-0.1463 -0.301667,-0.1817 -0.116287,-0.034 -0.234994,-0.059 -0.355222,-0.076 -0.130367,-0.018 -0.261159,-0.032 -0.392642,-0.037 -0.14518,-0.014 -0.290462,-0.014 -0.435619,-0.023 -0.186299,-0.014 -0.372344,-0.027 -0.55911,-0.027 -0.238829,0 -0.477659,-0.014 -0.716479,-0.014 -0.258051,-0.014 -0.516135,-0.014 -0.774265,-0.014 -0.248901,0 -0.497806,0 -0.746726,0 -0.223498,0 -0.446959,0 -0.670434,0.014 -0.16412,-10e-4 -0.328241,0 -0.492371,0 -0.14666,4e-4 -0.293317,10e-5 -0.439978,0 -0.133444,0 -0.266942,0 -0.400396,0 -0.138236,-10e-4 -0.276473,3e-4 -0.414714,0 -0.161965,0 -0.323896,3e-4 -0.485861,-4e-4 -0.183135,0 -0.366259,-0.014 -0.549426,-0.014 -0.177819,-4e-4 -0.355614,0 -0.533443,0 -0.171304,0 -0.342535,-0.014 -0.513817,-0.014 -0.16932,0 -0.33865,0 -0.507794,-0.014 -0.138875,-0.014 -0.277777,-0.014 -0.416689,-0.016 -0.14706,-0.014 -0.294206,-0.014 -0.441275,-0.014 -0.148377,-0.014 -0.29692,-0.014 -0.444951,-0.022 -0.112811,-0.014 -0.225765,-0.014 -0.338701,0 -0.121836,0.014 -0.243636,0.015 -0.365454,0.022 -0.08248,0 -0.164958,0.014 -0.247505,0.014 -0.1027,0 -0.205399,0.014 -0.308051,0.015 -0.106588,0.014 -0.213922,0.014 -0.318705,0.033 -0.03872,0.014 -0.07691,0.021 -0.113594,0.036 -0.0103,0.014 -0.03996,0.021 -0.03025,0.015 0.208999,-0.1223 0.548584,-0.3175 0.368064,-0.2139 -0.05296,0.033 -0.101753,0.071 -0.138709,0.1222 -0.03552,0.043 -0.07116,0.085 -0.105544,0.1292 -0.03318,0.043 -0.06573,0.087 -0.08716,0.1374 -0.02656,0.06 -0.05543,0.1195 -0.09542,0.173 -0.02798,0.041 -0.04879,0.087 -0.08291,0.1237 -0.04473,0.056 -0.08922,0.1126 -0.133472,0.1702 -0.08079,0.103 -0.161664,0.2058 -0.248151,0.304 -0.13464,0.1485 -0.277783,0.2903 -0.440271,0.4084 -0.394492,0.2798 -0.823141,0.506 -1.24485,0.7414 -0.06169,0.033 -0.123169,0.069 -0.185073,0.1017 -0.14022,0.075 -0.169787,0.1044 -0.317368,0.1346 -0.01044,0 -0.03132,-0.029 -0.04186,-0.03 -0.03636,-0.029 -0.0716,-0.058 -0.108552,-0.085 -0.09358,-0.066 -0.193803,-0.114 -0.309111,-0.1264 -0.03318,0 -0.0662,-0.014 -0.09946,-0.014 -0.306747,0 -0.60341,0.1058 -0.894224,0.1868 -0.136879,0.037 -0.331941,0.1072 -0.480398,0.088 -0.05764,-0.014 -0.105695,-0.048 -0.159475,-0.07 -0.170616,-0.07 -0.346912,-0.1237 -0.525448,-0.1689 -0.09899,-0.027 -0.241984,-0.062 -0.332922,-0.1154 -0.04043,-0.023 -0.07171,-0.06 -0.107207,-0.092 -0.07158,-0.062 -0.14159,-0.1264 -0.211489,-0.1901 0,0 0.428288,-0.2621 0.428288,-0.2621 z"
       inkscape:connector-curvature="0" />
    <path
       style="fill:#000000;fill-opacity:0.00092283;stroke-width:0.12240251"
       id="path4759"
       d="m 19.198974,-2019.5454 c 0.404138,-0.2302 0.773719,-0.5161 1.148629,-0.79 0.363724,-0.2767 0.730211,-0.5508 1.114918,-0.798 0.270215,-0.1737 0.353483,-0.2156 0.631807,-0.3731 0.405008,-0.2185 0.816984,-0.4256 1.240011,-0.6074 0.239533,-0.103 0.340186,-0.1384 0.582939,-0.231 0.530805,-0.1885 1.076071,-0.3343 1.624474,-0.4613 0.448194,-0.089 0.891179,-0.1995 1.333027,-0.3152 0.202704,-0.055 0.399055,-0.1291 0.587069,-0.2213 0.08275,-0.044 0.163368,-0.089 0.254129,-0.1154 0.07799,-0.021 0.11369,-0.023 0.196606,-0.033 0.480074,-0.036 0.962914,-0.026 1.442465,0.014 0.292166,0.036 0.581217,0.091 0.872332,0.1333 0,0 -0.468582,0.067 -0.468582,0.067 v 0 c -0.293201,-0.044 -0.584824,-0.099 -0.879706,-0.1292 -0.06314,-0.014 -0.126218,-0.014 -0.189399,-0.014 -0.05919,0 -0.236641,0 -0.177702,-0.014 0.102892,-0.014 0.207079,-0.014 0.310628,-0.014 0.05266,-8e-4 -0.105296,0 -0.157929,0 -0.04719,0 -0.09438,0 -0.141517,0.014 -0.04117,0 -0.08226,0.014 -0.123375,0.014 -0.158717,0.016 -0.307715,0.043 -0.4433,0.1319 -0.192202,0.098 -0.39464,0.1728 -0.602419,0.2298 -0.44658,0.114 -0.893649,0.2258 -1.346058,0.3147 -0.54996,0.125 -1.0961,0.2705 -1.629482,0.4543 -0.231914,0.087 -0.355878,0.1319 -0.584834,0.2283 -0.42462,0.1794 -0.838419,0.3845 -1.244455,0.6024 -0.279322,0.1563 -0.360595,0.1962 -0.630847,0.3696 -0.383339,0.246 -0.748035,0.5199 -1.109501,0.7964 -0.367605,0.2723 -0.728498,0.5552 -1.115076,0.8005 0,0 -0.49485,-0.054 -0.49485,-0.054 z"
       inkscape:connector-curvature="0" />
    <path
       style="fill:#000000;fill-opacity:0.00092283;stroke-width:0.12240251"
       id="path4761"
       d="m 24.237612,-2024.2195 c 0.230182,0.1471 0.493018,0.2135 0.755806,0.2753 0.413271,0.078 0.835073,0.092 1.254224,0.1085 0.0058,3e-4 -0.02333,0 -0.01749,0 0.149389,-0.014 0.298858,-0.014 0.448287,-0.016 0.711575,-0.055 1.41813,-0.1806 2.104225,-0.3776 0.108759,-0.032 0.216101,-0.067 0.324152,-0.1003 0.425011,-0.1319 0.817358,-0.344 1.227983,-0.5116 0.355388,-0.1497 0.735372,-0.206 1.116524,-0.2394 0.363104,-0.023 0.727402,-0.023 1.091033,-0.014 0.120106,0 0.307297,0.032 0.422551,0.062 0.07097,0.019 0.139244,0.047 0.208871,0.069 0.180676,0.08 0.265166,0.1072 0.431279,0.22 0.236767,0.1612 0.457286,0.3799 0.645309,0.5942 0.0733,0.084 0.140869,0.172 0.211305,0.2579 0.287834,0.3852 0.526895,0.8021 0.686338,1.2567 0.09994,0.2848 0.126919,0.4227 0.199243,0.7145 0.0247,0.1167 0.0513,0.2336 0.07417,0.3511 0.02216,0.114 0.03858,0.2284 0.0609,0.3422 0.07862,0.4007 0.176658,0.7966 0.276602,1.1925 0.02308,0.08 0.04621,0.1591 0.0693,0.2385 9.2e-5,0 -0.470951,0.017 -0.471043,0.014 v 0 c -0.02405,-0.08 -0.04812,-0.1601 -0.07219,-0.2404 -0.06896,-0.2878 -0.136865,-0.5766 -0.195528,-0.8668 -0.06856,-0.339 -0.119363,-0.6818 -0.195939,-1.0193 -0.0581,-0.2195 -0.126164,-0.4937 -0.201075,-0.7083 -0.157342,-0.4508 -0.39743,-0.8657 -0.689744,-1.2421 -0.07157,-0.085 -0.140402,-0.1721 -0.214699,-0.2546 -0.307192,-0.3411 -0.649075,-0.6304 -1.085144,-0.7893 -0.189259,-0.055 -0.230654,-0.076 -0.424161,-0.1003 -0.06992,-0.014 -0.276204,0.014 -0.210882,-0.016 0.08182,-0.033 0.176587,-0.014 0.264908,-0.014 0.135217,-3e-4 -0.528626,0.014 -0.405406,0.015 -0.380347,0.03 -0.759452,0.08 -1.115803,0.2245 -0.11913,0.048 -0.220389,0.089 -0.338228,0.141 -0.04848,0.022 -0.347764,0.1613 -0.387388,0.1781 -0.175126,0.073 -0.342786,0.1305 -0.52227,0.1944 -0.248331,0.076 -0.438733,0.1373 -0.692293,0.2001 -0.574523,0.1423 -1.160238,0.2374 -1.74987,0.2881 -0.865864,0.038 -1.742412,0.052 -2.599791,-0.093 -0.273324,-0.063 -0.544782,-0.136 -0.783542,-0.2896 -3.65e-4,0 0.499093,-0.052 0.49944,-0.05 z"
       inkscape:connector-curvature="0" />
    <path
       style="fill:#000000;fill-opacity:0.00092283;stroke-width:0.12240251"
       id="path4763"
       d="m 42.703848,-2024.5047 c -0.369651,0.1418 -0.746616,0.2642 -1.120966,0.3929 -0.346931,0.1236 -0.692216,0.2523 -1.046279,0.354 -0.213955,0.062 -0.320918,0.084 -0.536634,0.1346 -0.525346,0.1085 -1.055559,0.1978 -1.590227,0.245 -0.124859,0.014 -0.250035,0.018 -0.37505,0.027 -0.545026,0.03 -1.090793,0.047 -1.635166,0.088 -0.378089,0.029 -0.425841,0.036 -0.798572,0.074 -0.484491,0.056 -0.965778,0.139 -1.435997,0.2691 -0.22874,0.072 -0.460574,0.1292 -0.698534,0.1593 -0.185152,0.023 -0.340913,0.03 -0.528048,0.041 -0.625857,0.025 -1.252712,0.033 -1.878655,0 -0.303167,-0.015 -0.509497,-0.059 -0.80825,-0.1099 -0.689485,-0.1381 -1.374488,-0.3043 -2.044852,-0.5177 -0.126576,-0.04 -0.251858,-0.084 -0.377784,-0.1263 -0.312983,-0.1031 -0.618371,-0.2274 -0.923845,-0.3506 -3.71e-4,0 0.46484,-0.059 0.465229,-0.055 v 0 c 0.30145,0.1223 0.601628,0.249 0.911428,0.3494 0.320344,0.1071 0.434195,0.149 0.760025,0.2438 0.54524,0.1587 1.100161,0.2844 1.657151,0.3937 0.137834,0.022 0.275155,0.047 0.413493,0.066 0.129529,0.018 0.261017,0.019 0.389826,0.041 0.01749,0 -0.06821,0.016 -0.05049,0.018 0.122839,0 0.245857,0 0.36877,-0.014 0.324781,-0.014 0.337068,-0.014 0.652712,-0.018 0.242743,-0.015 0.485249,-0.026 0.72507,-0.069 0.158745,-0.027 0.17891,-0.039 0.329055,-0.081 0.0522,-0.015 0.104486,-0.029 0.156728,-0.044 0.09227,-0.026 0.238708,-0.066 0.32998,-0.087 0.375293,-0.084 0.758147,-0.1333 1.13872,-0.1856 0.807741,-0.085 1.617777,-0.1305 2.429136,-0.1647 0.124776,-0.014 0.249719,-0.015 0.374355,-0.026 0.530514,-0.045 1.05591,-0.1346 1.577204,-0.2411 0.224049,-0.051 0.317401,-0.069 0.538998,-0.1305 0.352418,-0.099 0.694763,-0.2297 1.039187,-0.3529 0.366509,-0.1278 0.735133,-0.2502 1.096695,-0.3911 3.71e-4,0 0.495975,0.054 0.495573,0.056 z"
       inkscape:connector-curvature="0" />
    <path
       style="fill:#000000;fill-opacity:0.00092283;stroke-width:0.12240251"
       id="path4765"
       d="m 23.974794,-2024.6815 c 0.05369,0.074 0.07565,0.1113 0.153545,0.1732 0.304972,0.2404 0.720991,0.3347 1.086316,0.4299 0.169097,0.03 0.337322,0.066 0.50729,0.089 0.399674,0.058 0.873572,0.099 1.273871,0.1236 0.496613,0.032 0.96728,0.049 1.46519,0.054 0.243714,0 0.48743,0 0.731144,0 0.885447,-0.018 1.768327,-0.1168 2.63856,-0.2792 0.388539,-0.073 0.611417,-0.1264 0.990939,-0.213 0.479422,-0.1044 0.955905,-0.2249 1.441901,-0.2965 0.252778,-0.037 0.326053,-0.04 0.57766,-0.063 0.483331,-0.033 0.968132,-0.034 1.452398,-0.033 0.237567,0.014 0.477183,-0.014 0.713046,0.025 0.05152,0.014 0.08869,0.021 0.121287,0.06 4e-6,0 -0.0103,10e-4 -0.0103,6e-4 v 0 c -0.03247,-0.037 -0.06837,-0.051 -0.118072,-0.059 -0.237294,-0.033 -0.477326,-0.019 -0.716141,-0.025 -0.47704,0 -0.954685,0 -1.430762,0.033 -0.245435,0.022 -0.331538,0.026 -0.578186,0.063 -0.485927,0.072 -0.962915,0.1896 -1.441767,0.2965 -0.331035,0.076 -0.65397,0.1511 -0.987997,0.2135 -0.87156,0.1626 -1.756606,0.2607 -2.643221,0.2785 -0.250255,0 -0.500513,0.014 -0.750768,0.014 -0.503099,-0.014 -0.960744,-0.022 -1.462354,-0.054 -0.429782,-0.028 -0.849626,-0.062 -1.275661,-0.1236 -0.170527,-0.025 -0.339377,-0.061 -0.509066,-0.089 -0.38303,-0.1003 -0.906387,-0.2165 -1.186256,-0.5285 -0.0205,-0.023 -0.03515,-0.049 -0.05271,-0.075 -4e-6,-2e-4 0.01017,-6e-4 0.01017,-6e-4 z"
       inkscape:connector-curvature="0" />
    <path
       style="fill:#000000;fill-opacity:0.00092283;stroke-width:0.12240251"
       id="path4767"
       d="m 21.575092,-2027.3384 c 0.511824,0.1932 1.070831,0.2035 1.610435,0.235 0.810141,0.038 1.621398,0.033 2.432091,0.049 0.667081,0.014 0.715041,0.018 1.382399,0.044 0.80613,0.051 1.613997,0.114 2.41322,0.2351 0.252676,0.038 0.576656,0.1044 0.83132,0.1537 0.26866,0.063 0.636105,0.1112 0.84719,0.3131 0.07437,0.071 0.116026,0.1552 0.167544,0.242 0.107068,0.323 0.182427,0.6557 0.296046,0.9766 0.02845,0.081 0.06099,0.1595 0.09149,0.239 0.08553,0.2127 0.171373,0.4274 0.283406,0.6281 0.02864,0.051 0.06201,0.1003 0.09321,0.1496 0.0247,0.038 0.04723,0.081 0.07444,0.1181 0.02206,0.03 0.04874,0.058 0.07312,0.087 0.06187,0.058 0.121506,0.1391 0.203744,0.1706 0.02915,0.014 0.07224,0.014 0.102247,0.016 0.163121,-0.014 0.502801,0.045 -0.215773,0 -0.04076,0 0.08138,-0.014 0.121892,-0.014 0.142229,-0.018 0.139984,-0.021 0.280331,-0.052 4.63e-4,0 0.482911,0.062 0.482448,0.066 v 0 c -0.156654,0.038 -0.119968,0.033 -0.278912,0.058 -0.04058,0.014 -0.08094,0.015 -0.121946,0.016 -0.198012,0.014 -0.396177,0.014 -0.594272,0.014 -0.07388,10e-5 -0.09921,0 -0.170005,-0.014 -0.01856,0 -0.03761,-0.014 -0.05569,-0.014 -0.10347,-0.036 -0.172674,-0.136 -0.245218,-0.2104 -0.228061,-0.2973 -0.367763,-0.6543 -0.508257,-0.9983 -0.07973,-0.2288 -0.166429,-0.4561 -0.236785,-0.688 -0.04381,-0.1444 -0.05892,-0.2315 -0.107646,-0.3717 -0.01735,-0.05 -0.0391,-0.099 -0.05863,-0.1473 -0.06245,-0.1099 -0.06488,-0.1374 -0.16386,-0.2209 -0.223064,-0.1894 -0.534492,-0.2308 -0.80732,-0.2975 -0.2897,-0.058 -0.522049,-0.1072 -0.817527,-0.1528 -0.788713,-0.1223 -1.585771,-0.1861 -2.381744,-0.2357 -0.621937,-0.022 -0.764874,-0.032 -1.385525,-0.043 -0.820555,-0.015 -1.641707,-0.014 -2.461704,-0.047 -0.560315,-0.03 -1.137772,-0.044 -1.669516,-0.2432 -3.71e-4,0 0.493346,-0.062 0.493758,-0.058 z"
       inkscape:connector-curvature="0" />
    <path
       style="fill:#000000;fill-opacity:0.00092283;stroke-width:0.12240251"
       id="path4769"
       d="m 22.800734,-2026.8605 c 0.595166,0.2325 1.213852,0.4 1.825842,0.582 0.727355,0.2226 1.461646,0.4224 2.188285,0.6475 0.123471,0.038 0.861609,0.2765 1.001761,0.3217 0.340888,0.1154 0.68329,0.2316 1.012868,0.3779 0.06275,0.027 0.126218,0.055 0.185335,0.089 0.103827,0.06 0.142826,0.1085 0.224637,0.1889 0.02212,0.032 0.04641,0.063 0.06635,0.095 0.0414,0.069 0.05776,0.1236 0.09547,0.1948 0.06108,0.114 0.136852,0.2194 0.213528,0.3236 0.202495,0.248 0.436713,0.474 0.701795,0.6547 0.06068,0.041 0.124666,0.078 0.187006,0.1168 0.07016,0.036 0.138367,0.076 0.210448,0.1085 0.179779,0.081 0.331544,0.125 0.523093,0.1748 0.346769,0.091 0.700977,0.149 1.053039,0.214 1.127968,0.1841 2.269807,0.2532 3.410244,0.3024 1.044474,0.038 2.089755,0.044 3.134802,0.043 -0.03835,-0.014 -0.152827,-0.014 -0.115036,-0.016 0.100846,-0.023 0.206311,-0.015 0.308888,-0.027 0.19974,-0.025 0.383651,-0.061 0.577272,-0.1154 0.09358,-0.026 0.185175,-0.059 0.277763,-0.088 3.67e-4,0 0.465835,0.055 0.465418,0.059 v 0 c -0.220356,0.072 -0.334181,0.1141 -0.559348,0.1615 -0.461018,0.099 -0.93246,0.096 -1.401959,0.098 -1.034634,-0.014 -2.069487,-0.014 -3.103492,-0.05 -1.148778,-0.051 -2.299688,-0.1195 -3.43597,-0.3044 -0.453339,-0.078 -0.926007,-0.1474 -1.362002,-0.3001 -0.207288,-0.073 -0.263613,-0.1113 -0.453509,-0.2115 -0.06356,-0.04 -0.128843,-0.077 -0.19068,-0.1208 -0.269108,-0.1859 -0.505546,-0.4145 -0.711797,-0.6675 -0.0595,-0.078 -0.113993,-0.1447 -0.164487,-0.2286 -0.07479,-0.1237 -0.120188,-0.2665 -0.21592,-0.3777 -0.02747,-0.027 -0.05188,-0.06 -0.08249,-0.085 -0.09606,-0.078 -0.195418,-0.1251 -0.307571,-0.1775 -0.317573,-0.1491 -0.649015,-0.2639 -0.980309,-0.3779 -1.055129,-0.3501 -2.12094,-0.6655 -3.190687,-0.9676 -0.308516,-0.091 -0.594908,-0.1732 -0.902228,-0.2643 -0.287785,-0.085 -0.576925,-0.1698 -0.860091,-0.2698 -0.0414,-0.015 -0.08178,-0.032 -0.122661,-0.048 -3.71e-4,0 0.495969,-0.06 0.496372,-0.056 z"
       inkscape:connector-curvature="0" />
    <path
       style="fill:#000000;fill-opacity:0.00092283;stroke-width:0.12240251"
       id="path4771"
       d="m 20.334983,-2025.7916 c 0.644593,0.014 1.283263,-0.1017 1.918099,-0.1985 1.684777,-0.2579 3.372479,-0.4959 5.058396,-0.7462 1.118703,-0.1626 2.243692,-0.2799 3.371865,-0.3512 0.237821,-0.015 0.475697,-0.03 0.713842,-0.038 0.214912,-0.014 0.430051,-0.014 0.645079,-0.014 0.502645,0 1.008477,0.026 1.503591,0.1195 0.185997,0.036 0.449633,0.1031 0.629556,0.1803 0.07789,0.033 0.149774,0.08 0.224665,0.1181 0.173469,0.1504 0.229784,0.1695 0.3348,0.3829 0.169986,0.3455 0.170865,0.8046 0.192904,1.1808 0.02624,0.7392 0.172883,1.4636 0.339858,2.1814 0.05924,0.2383 0.128911,0.4737 0.201921,0.7082 0.106547,0.3423 -0.377685,0.493 -0.484237,0.1505 v 0 c -0.07653,-0.2462 -0.14978,-0.4934 -0.211655,-0.7439 -0.173294,-0.7459 -0.324272,-1.4987 -0.352172,-2.2668 -0.01017,-0.1752 -0.01984,-0.3994 -0.0415,-0.5764 -0.01763,-0.1442 -0.044,-0.3543 -0.133142,-0.4786 -0.02507,-0.034 -0.05977,-0.062 -0.08964,-0.093 -0.04978,-0.027 -0.0969,-0.062 -0.149362,-0.085 -0.152291,-0.067 -0.380826,-0.1264 -0.53724,-0.1571 -0.467755,-0.091 -0.946052,-0.1099 -1.421091,-0.114 -0.208349,0 -0.416801,0 -0.625042,0.014 -0.235181,0.014 -0.470091,0.022 -0.704951,0.038 -1.115381,0.071 -2.227608,0.1862 -3.333616,0.347 -1.685203,0.2501 -3.372188,0.488 -5.056251,0.7459 -0.660233,0.1003 -1.324366,0.2164 -1.994693,0.2043 -0.358603,0 -0.358603,-0.5072 0,-0.5072 z"
       inkscape:connector-curvature="0" />
    <path
       style="fill:#000000;fill-opacity:0.00092283;stroke-width:0.12240251"
       id="path4773"
       d="m 32.620195,-2025.1831 c -0.591181,-0.015 -1.179551,0.047 -1.767042,0.1031 -1.190423,0.1154 -2.374907,0.2869 -3.557164,0.4662 -0.824932,0.1498 -1.656466,0.3282 -2.432017,0.6564 -0.403015,0.1705 -0.497451,0.2427 -0.862344,0.4602 -0.416011,0.2784 -0.780451,0.626 -1.067893,1.0366 -0.140092,0.2 -0.199623,0.3224 -0.315861,0.5348 -0.255803,0.5167 -0.535876,1.0205 -0.81042,1.5273 -0.155437,0.2856 -0.287567,0.5829 -0.361424,0.9006 -0.04131,0.1778 -0.04985,0.2676 -0.07496,0.4475 -0.03664,0.3375 -0.0598,0.68 0.0037,1.0161 0.01195,0.063 0.02998,0.125 0.04496,0.1879 0.08145,0.3492 -0.412434,0.4644 -0.493883,0.1154 v 0 c -0.01786,-0.078 -0.03923,-0.1555 -0.05356,-0.2343 -0.06947,-0.3825 -0.04631,-0.7721 -0.0033,-1.156 0.02952,-0.2062 0.039,-0.3057 0.08811,-0.5106 0.08495,-0.3547 0.230622,-0.6883 0.404515,-1.0078 0.275047,-0.5077 0.555429,-1.0126 0.811894,-1.5302 0.134434,-0.2436 0.195481,-0.3698 0.3587,-0.6002 0.326838,-0.4613 0.739994,-0.8513 1.210903,-1.1631 0.40332,-0.238 0.500138,-0.3127 0.944253,-0.4993 0.808346,-0.3398 1.673342,-0.5273 2.532678,-0.6824 1.191456,-0.1807 2.385141,-0.3533 3.584835,-0.4696 0.603562,-0.058 1.208063,-0.1209 1.815386,-0.1057 0.358603,0 0.358603,0.5071 0,0.5071 z"
       inkscape:connector-curvature="0" />
    <path
       style="fill:#000000;fill-opacity:0.00092283;stroke-width:0.12240251"
       id="path4775"
       d="m 19.867669,-2019.5848 c 0.584838,0.1346 1.184631,0.1738 1.781683,0.2117 0.911211,0.048 1.826355,0.052 2.735962,-0.029 0.711483,-0.063 0.925414,-0.1112 1.63637,-0.2272 1.12559,-0.2132 2.24198,-0.4763 3.335049,-0.8205 0.636152,-0.2003 0.870809,-0.2929 1.492428,-0.5183 0.22869,-0.089 0.458419,-0.1768 0.686066,-0.2691 0.459279,-0.1865 0.798724,-0.3339 1.244583,-0.5438 0.536879,-0.2529 1.060786,-0.5305 1.585282,-0.8077 0.582563,-0.2972 1.153663,-0.6163 1.734903,-0.9159 0.257918,-0.1332 0.445359,-0.2239 0.703689,-0.3511 0.302764,-0.1401 0.610384,-0.2726 0.928775,-0.3735 0.277081,-0.088 0.561011,-0.1477 0.845248,-0.2064 0.439343,-0.074 0.886418,-0.1305 1.333027,-0.1264 0.08795,9e-4 0.175727,0.014 0.263593,0.014 0.402599,0.03 0.806094,0.089 1.180028,0.2494 0.06777,0.029 0.132689,0.065 0.199039,0.096 0.251969,0.1448 0.4701,0.3385 0.62098,0.5889 0.09847,0.1635 0.111931,0.226 0.177606,0.4042 0.121259,0.3375 -0.356017,0.509 -0.47727,0.1716 v 0 c -0.01758,-0.051 -0.03238,-0.1031 -0.05281,-0.1524 -0.09826,-0.239 -0.269793,-0.4253 -0.49114,-0.5566 -0.05179,-0.026 -0.102357,-0.055 -0.155349,-0.077 -0.323999,-0.1413 -0.675458,-0.1902 -1.025077,-0.2173 -0.07576,0 -0.151458,-0.014 -0.227324,-0.014 -0.416347,-0.014 -0.833269,0.048 -1.242974,0.1154 -0.261983,0.054 -0.524517,0.1085 -0.780014,0.1883 -0.299092,0.095 -0.587875,0.2186 -0.872241,0.3498 -0.251463,0.1236 -0.441254,0.2159 -0.691973,0.3452 -0.580879,0.2995 -1.151572,0.6183 -1.733766,0.9153 -0.533336,0.2818 -1.066149,0.5639 -1.612146,0.8208 -0.453681,0.2136 -0.802482,0.365 -1.269477,0.5543 -0.231733,0.093 -0.465589,0.1826 -0.698386,0.2739 -0.633253,0.2296 -0.872179,0.3237 -1.520551,0.5276 -1.113976,0.3504 -2.251613,0.6184 -3.398744,0.835 -0.734308,0.1182 -0.949979,0.1672 -1.685302,0.2328 -0.931067,0.082 -1.86775,0.078 -2.800413,0.029 -0.627571,-0.04 -1.257961,-0.084 -1.872358,-0.2258 -0.347898,-0.087 -0.224896,-0.5791 0.123004,-0.492 z"
       inkscape:connector-curvature="0" />
    <path
       style="opacity:0.3;fill:#ffffff;fill-opacity:0;stroke-width:0.00903562;stroke-miterlimit:4;stroke-dasharray:none;paint-order:stroke markers fill"
       d="m 18.449671,-2009.4983 c -0.257187,-0.044 -0.577706,-0.1646 -0.820277,-0.3112 -0.555862,-0.3354 -0.93852,-0.8903 -1.240494,-1.7983 -0.152924,-0.46 -0.216521,-0.7303 -0.490113,-2.0838 -0.591713,-2.9275 -0.939838,-5.0684 -1.41078,-8.676 -0.05906,-0.4525 -0.111465,-0.8267 -0.116465,-0.8317 -0.01503,-0.015 -0.21054,0.6148 -0.524648,1.6902 -0.599741,2.053 -0.767854,2.6051 -0.787339,2.5857 -0.01099,-0.014 -0.0089,-0.048 0.0041,-0.084 0.0155,-0.041 0.01583,-0.063 9.07e-4,-0.063 -0.01278,0 -0.02331,0.022 -0.02331,0.05 0,0.032 -0.01017,0.043 -0.02763,0.032 -0.0167,-0.014 -0.02114,-0.014 -0.01126,0.014 0.02683,0.044 -0.01085,0.1483 -0.05343,0.1487 -0.03003,1e-4 -0.03187,0.014 -0.008,0.019 0.04287,0.028 0.01113,0.1544 -0.03423,0.1374 -0.01809,-0.014 -0.0329,0 -0.0329,0.014 0,0.014 0.01072,0.025 0.02384,0.029 0.01475,0 0.0088,0.06 -0.01559,0.1465 -0.02748,0.096 -0.04922,0.1347 -0.07164,0.1264 -0.01772,-0.014 -0.0322,0 -0.0322,0.014 0,0.014 0.01154,0.025 0.02573,0.03 0.04007,0.014 -9.08e-4,0.1385 -0.04621,0.1406 -0.0248,0 -0.02827,0.014 -0.0093,0.014 0.04428,0.018 0.03622,0.056 -0.01195,0.056 -0.03451,3e-4 -0.03581,0.014 -0.0074,0.022 0.02813,0.018 0.02923,0.033 0.006,0.084 -0.01569,0.034 -0.02855,0.085 -0.02855,0.1113 0,0.026 -0.0081,0.044 -0.01794,0.037 -0.0099,-0.014 -0.0192,0.023 -0.02073,0.063 -0.0014,0.041 -0.01438,0.078 -0.02853,0.082 -0.01415,0 -0.0198,0.023 -0.01264,0.043 0.0073,0.019 0.0037,0.034 -0.0074,0.034 -0.01126,0 -0.02175,0.034 -0.02327,0.077 -0.0014,0.041 -0.01503,0.081 -0.03003,0.085 -0.01499,0.014 -0.02128,0.019 -0.01401,0.032 0.01794,0.029 -0.039,0.2136 -0.06593,0.2136 -0.01181,0 -0.01503,0.014 -0.0071,0.023 0.008,0.014 -0.0076,0.095 -0.03443,0.1817 -0.02688,0.087 -0.04345,0.1669 -0.03683,0.1776 0.0066,0.014 0.0027,0.023 -0.0082,0.027 -0.01113,0.014 -0.02665,0.04 -0.03437,0.08 l -0.01401,0.071 0.02692,-0.066 c 0.02322,-0.056 0.06549,-0.091 0.06549,-0.052 0,0.014 -0.817434,2.8299 -1.422143,4.9001 -0.192025,0.6575 -0.360684,1.2412 -0.374794,1.2969 -0.0141,0.056 -0.03414,0.1017 -0.04451,0.1017 -0.01037,0 -0.01319,0.022 -0.0064,0.048 0.01698,0.066 -0.0137,0.06 -0.03807,-0.014 -0.01744,-0.047 -0.02133,-0.044 -0.03617,0.036 -0.0099,0.052 -0.03035,0.089 -0.05066,0.089 -0.02045,0 -0.02854,0.015 -0.02026,0.036 0.0078,0.021 4.63e-4,0.036 -0.0167,0.036 -0.01675,0 -0.02378,0.014 -0.01559,0.014 0.01666,0.017 -0.147827,0.2682 -0.208144,0.3182 -0.03252,0.027 -0.130326,0.027 -0.5942033,0 -0.3054008,-0.017 -0.79914,-0.026 -1.0972083,-0.022 -0.2980593,0.014 -0.5386514,0.014 -0.5346411,0 0.00418,0 -0.00717,-0.055 -0.024891,-0.114 -0.017673,-0.059 -0.026506,-0.1223 -0.01957,-0.1397 0.0069,-0.018 0.00136,-0.04 -0.011897,-0.048 -0.013463,-0.014 -0.018273,-0.032 -0.010633,-0.051 0.00871,-0.022 0.00181,-0.033 -0.018963,-0.029 -0.035811,0.014 -0.037199,-0.027 -0.00995,-0.2441 0.00908,-0.073 0.018,-0.1503 0.019889,-0.1732 0.00181,-0.023 0.012487,-0.041 0.023593,-0.041 0.0111,0 0.013559,-0.014 0.00544,-0.023 -0.00817,-0.014 -0.00227,-0.023 0.013092,-0.023 0.015313,0 0.021695,-0.016 0.014106,-0.036 -0.00753,-0.021 -0.00418,-0.036 0.00735,-0.036 0.011567,0 0.018045,-0.028 0.014342,-0.06 -0.00473,-0.043 0.00282,-0.058 0.024799,-0.05 0.021096,0.014 0.026607,-10e-4 0.016702,-0.026 -0.00975,-0.026 -0.00544,-0.033 0.012817,-0.022 0.01948,0.014 0.023547,0 0.013788,-0.052 -0.00911,-0.045 -0.00136,-0.082 0.02313,-0.1058 0.020307,-0.021 0.030255,-0.044 0.022113,-0.052 -0.00817,-0.014 -0.00327,-0.015 0.011237,-0.015 0.014342,0 0.038905,-0.038 0.054591,-0.086 0.020914,-0.063 0.03414,-0.078 0.049299,-0.054 0.01143,0.018 0.020914,0.022 0.021096,0.014 2.459e-4,-0.014 -0.013092,-0.04 -0.02952,-0.058 -0.024473,-0.026 -0.021695,-0.029 0.015358,-0.016 0.040113,0.015 0.041502,0.014 0.011979,-0.025 -0.029057,-0.036 -0.028313,-0.038 0.00563,-0.026 0.026461,0.014 0.047548,0 0.066046,-0.045 0.014942,-0.033 0.02165,-0.069 0.01485,-0.08 -0.020588,-0.033 0.014805,-0.098 0.044134,-0.08 0.015031,0.014 0.012625,0 -0.00544,-0.025 -0.028594,-0.036 -0.02706,-0.041 0.011938,-0.041 0.037662,-4e-4 0.039041,-0.014 0.0089,-0.023 -0.029747,-0.019 -0.027714,-0.023 0.011938,-0.023 0.03965,-4e-4 0.041683,0 0.011938,-0.023 -0.032796,-0.021 -0.016656,-0.034 0.031644,-0.026 0.010825,0 0.013504,-0.014 0.00591,-0.019 -0.019245,-0.032 0.010633,-0.1003 0.036409,-0.085 0.011608,0.014 0.014062,-0.014 0.00536,-0.029 -0.010592,-0.029 -0.00672,-0.036 0.011938,-0.023 0.018091,0.014 0.022766,0.014 0.013463,-0.019 -0.00853,-0.022 -0.00136,-0.037 0.018181,-0.037 0.025027,-3e-4 0.024246,-0.014 -0.00327,-0.023 -0.029747,-0.019 -0.027714,-0.023 0.011938,-0.023 0.03965,-4e-4 0.041683,-0.014 0.011938,-0.023 -0.029747,-0.019 -0.027714,-0.023 0.011938,-0.023 0.03965,-5e-4 0.041683,0 0.011938,-0.023 -0.032016,-0.021 -0.017718,-0.033 0.029002,-0.027 0.0094,0 0.010221,-0.015 0.00181,-0.037 -0.011059,-0.029 -0.00644,-0.034 0.016885,-0.021 0.023411,0.015 0.02794,0.014 0.016747,-0.019 -0.00835,-0.022 -0.00418,-0.04 0.0093,-0.04 0.013504,0 0.017901,-0.014 0.00981,-0.023 -0.00817,-0.014 -9.078e-4,-0.023 0.016512,-0.025 0.022712,-2e-4 0.021514,-0.014 -0.00463,-0.023 -0.029747,-0.019 -0.027714,-0.023 0.011938,-0.023 0.03965,-5e-4 0.041683,-0.014 0.011979,-0.023 -0.029747,-0.019 -0.027714,-0.023 0.011938,-0.023 0.03965,-4e-4 0.041683,-0.014 0.011938,-0.023 -0.030763,-0.019 -0.030029,-0.023 0.00526,-0.023 0.028449,-3e-4 0.036409,-0.014 0.025816,-0.04 -0.010262,-0.027 -0.00609,-0.034 0.012721,-0.023 0.027341,0.018 0.038216,-0.014 0.029193,-0.078 -0.00282,-0.021 0.00681,-0.026 0.02706,-0.014 0.021232,0.014 0.019844,0.014 -0.00463,-0.026 -0.032243,-0.04 -0.031916,-0.044 0.00327,-0.03 0.026461,0.014 0.047548,0 0.066046,-0.045 0.014941,-0.033 0.02165,-0.069 0.01485,-0.08 -0.018181,-0.029 0.013229,-0.097 0.037889,-0.082 0.011608,0.014 0.01406,-0.014 0.00536,-0.029 -0.011897,-0.032 -0.00745,-0.036 0.018181,-0.021 0.027251,0.016 0.026833,0.014 -0.00181,-0.025 -0.032851,-0.041 -0.032016,-0.044 0.00934,-0.029 0.040158,0.015 0.041502,0.014 0.011979,-0.023 -0.029193,-0.036 -0.028267,-0.038 0.00735,-0.025 0.030436,0.014 0.036918,0.014 0.025817,-0.023 -0.010633,-0.029 -0.00591,-0.033 0.016883,-0.019 0.021142,0.014 0.025953,0.014 0.014479,-0.014 -0.02244,-0.036 0.00672,-0.1278 0.035156,-0.1099 0.012075,0.014 0.01485,-0.014 0.00617,-0.027 -0.011897,-0.03 -0.00745,-0.036 0.018181,-0.021 0.027251,0.016 0.026833,0.014 -0.00181,-0.025 -0.032243,-0.04 -0.031925,-0.044 0.00282,-0.032 0.026969,0.014 0.047211,-0.014 0.066138,-0.05 0.025308,-0.059 0.024654,-0.06 -0.00871,-0.018 -0.055136,0.071 -0.064495,0.033 -0.011704,-0.047 0.026506,-0.04 0.046857,-0.055 0.047158,-0.034 4.629e-4,0.032 0.00327,0.032 0.023502,0 0.012625,-0.019 0.016702,-0.056 0.00898,-0.081 -0.0079,-0.026 -0.00418,-0.039 0.00853,-0.03 0.031735,0.019 0.1042059,-0.1421 0.085527,-0.1909 -0.011608,-0.03 -0.00699,-0.036 0.018508,-0.021 0.027251,0.016 0.026833,0.014 -0.00181,-0.025 -0.033033,-0.041 -0.032062,-0.044 0.011938,-0.027 0.035946,0.014 0.041039,0.014 0.020541,-0.014 -0.020451,-0.021 -0.013325,-0.052 0.028449,-0.125 0.030627,-0.054 0.050343,-0.1072 0.043807,-0.1168 -0.00654,-0.014 1.062e-4,-0.019 0.014805,-0.019 0.014714,0 0.02165,-0.014 0.015496,-0.018 -0.00617,-0.014 0.00372,-0.038 0.022485,-0.064 0.024101,-0.033 0.033868,-0.036 0.034095,-0.014 3.649e-4,0.029 0.00418,0.029 0.023364,0 0.012625,-0.021 0.016702,-0.056 0.00898,-0.081 -0.010372,-0.033 -0.00563,-0.04 0.018455,-0.026 0.023592,0.015 0.022667,0.014 -0.00327,-0.025 -0.033033,-0.041 -0.032061,-0.044 0.011938,-0.027 0.036545,0.014 0.04122,0.014 0.019943,-0.014 -0.021232,-0.022 -0.017257,-0.045 0.016702,-0.1016 0.024518,-0.04 0.039096,-0.081 0.032434,-0.093 -0.00662,-0.014 -9.73e-5,-0.019 0.014615,-0.019 0.014714,0 0.020079,-0.014 0.011938,-0.023 -0.00817,-0.014 -0.00327,-0.023 0.01055,-0.023 0.013924,0 0.025308,-0.016 0.025308,-0.037 0,-0.021 0.00845,-0.032 0.01878,-0.025 0.010317,0.014 0.020815,-0.014 0.023366,-0.034 0.010962,-0.1113 0.014805,-0.1196 0.048917,-0.1058 0.030391,0.014 0.030673,0.014 0.00181,-0.027 -0.029566,-0.036 -0.028222,-0.038 0.011938,-0.023 0.040158,0.015 0.041492,0.014 0.011979,-0.023 -0.029057,-0.036 -0.028313,-0.039 0.00591,-0.026 0.028594,0.014 0.03965,4e-4 0.040893,-0.037 0.00327,-0.098 0.011526,-0.136 0.029611,-0.136 0.019381,0 0.082631,-0.1674 0.074489,-0.1973 -0.00282,-0.014 0.00644,-0.018 0.020406,-0.018 0.01392,0 0.01865,-0.014 0.01055,-0.023 -0.0082,-0.014 -2.45e-4,-0.023 0.01739,-0.023 0.02845,0 0.03881,-0.03 0.04782,-0.1375 0.0014,-0.016 0.01212,-0.03 0.02383,-0.03 0.01176,0 0.01467,-0.014 0.0065,-0.023 -0.0082,-0.014 0.0046,-0.023 0.0285,-0.025 0.0328,-3e-4 0.03553,-0.014 0.01133,-0.021 -0.02535,-0.017 -0.02359,-0.023 0.0087,-0.036 0.02646,-0.014 0.03622,-0.033 0.02803,-0.063 -0.0069,-0.026 0.0023,-0.063 0.02008,-0.081 0.0179,-0.018 0.02595,-0.039 0.01781,-0.047 -0.0082,-0.014 0.0058,-0.015 0.03104,-0.016 0.02748,-10e-4 0.03335,-0.014 0.01466,-0.015 -0.02341,-0.014 -0.02045,-0.021 0.01194,-0.048 0.02368,-0.019 0.02966,-0.029 0.01323,-0.019 -0.04131,0.021 -0.04048,0.018 0.05485,-0.1884 0.04661,-0.1002 0.0949,-0.1772 0.107311,-0.1693 0.01282,0.014 0.01578,0 0.0068,-0.027 -0.0094,-0.025 -0.0062,-0.036 0.0081,-0.026 0.03284,0.019 0.130283,-0.1878 0.111215,-0.2375 -0.01165,-0.03 -0.0071,-0.036 0.01851,-0.019 0.02725,0.016 0.02683,0.014 -0.0018,-0.025 -0.03284,-0.041 -0.03202,-0.044 0.0093,-0.027 0.04016,0.015 0.04149,0.014 0.01194,-0.023 -0.02937,-0.036 -0.02827,-0.038 0.0098,-0.025 0.02568,0.014 0.03724,0.014 0.02859,-0.014 -0.008,-0.014 -0.0037,-0.043 0.01,-0.066 0.01346,-0.022 0.02498,-0.03 0.02558,-0.018 4.62e-4,0.014 0.01092,0.014 0.02295,-0.014 0.01356,-0.022 0.01235,-0.052 -0.0033,-0.082 -0.02012,-0.037 -0.01814,-0.044 0.01026,-0.033 0.02489,0.014 0.03429,0 0.03193,-0.039 -0.0018,-0.029 0.01313,-0.069 0.03326,-0.088 0.03859,-0.038 0.05485,-0.08 0.0573,-0.1493 9.08e-4,-0.022 0.01059,-0.041 0.0217,-0.041 0.0111,0 0.01356,-0.014 0.0054,-0.023 -0.0082,-0.014 -0.0028,-0.023 0.01198,-0.023 0.01471,0 0.02008,-0.014 0.01194,-0.023 -0.0082,-0.014 0.0028,-0.023 0.02392,-0.023 0.02128,0 0.03202,-0.014 0.02392,-0.023 -0.0082,-0.014 -0.0028,-0.023 0.01194,-0.023 0.01471,0 0.02008,-0.014 0.01194,-0.023 -0.0082,-0.014 -0.0028,-0.023 0.01198,-0.023 0.01471,0 0.02008,-0.014 0.01194,-0.023 -0.0082,-0.014 -0.0023,-0.023 0.01346,-0.023 0.01994,0 0.0186,-0.014 -0.0046,-0.04 -0.029,-0.036 -0.02752,-0.039 0.0124,-0.023 0.04016,0.015 0.0415,0.014 0.01194,-0.023 -0.02947,-0.036 -0.02822,-0.038 0.01124,-0.025 0.03354,0.014 0.04109,0.014 0.03063,-0.019 -0.0076,-0.019 -0.0037,-0.036 0.0084,-0.036 0.04219,0 0.07753,-0.096 0.04831,-0.1305 -0.02082,-0.025 -0.01573,-0.036 0.02258,-0.048 0.02721,-0.014 0.04381,-0.025 0.03696,-0.036 -0.0068,-0.014 -0.0033,-0.023 0.0077,-0.027 0.03895,-0.015 0.240976,-0.4758 0.225982,-0.5148 -0.0088,-0.023 -0.0052,-0.033 0.0091,-0.023 0.01317,0.014 0.04852,-0.044 0.07848,-0.1168 0.02997,-0.073 0.06832,-0.1452 0.08524,-0.1621 0.01693,-0.018 0.08211,-0.1318 0.144866,-0.256 0.06276,-0.1237 0.123075,-0.2289 0.134041,-0.2333 0.01099,-0.014 0.01383,-0.018 0.0065,-0.03 -0.0074,-0.014 -0.0023,-0.022 0.01099,-0.022 0.01346,0 0.01772,-0.018 0.0093,-0.04 -0.0092,-0.023 -0.0056,-0.033 0.0088,-0.025 0.02688,0.017 0.127455,-0.1472 0.127455,-0.2075 0,-0.021 0.02151,-0.061 0.04781,-0.087 0.02628,-0.026 0.03974,-0.048 0.02988,-0.048 -0.0099,-10e-5 -0.0037,-0.014 0.01319,-0.019 0.01708,-0.014 0.03285,-0.043 0.03497,-0.071 0.0023,-0.029 0.01415,-0.052 0.02669,-0.052 0.0125,0 0.01614,-0.014 0.008,-0.015 -0.0081,-0.014 0.0014,-0.03 0.02105,-0.051 0.06197,-0.062 0.0604,-0.018 -0.0041,0.1237 -0.03443,0.075 -0.05752,0.1416 -0.05138,0.1478 0.0062,0.014 0.0247,-0.022 0.04123,-0.061 0.01653,-0.04 0.0372,-0.073 0.04594,-0.073 0.0087,0 0.01758,-0.022 0.01962,-0.049 0.0052,-0.07 0.124159,-0.2654 0.151246,-0.2487 0.03279,0.019 0.02763,-0.022 -0.0074,-0.059 -0.02434,-0.026 -0.02239,-0.03 0.01071,-0.018 0.02873,0.014 0.03673,0 0.02739,-0.019 -0.0073,-0.019 0.0037,-0.041 0.02497,-0.049 0.021,-0.014 0.03224,-0.025 0.02499,-0.037 -0.0073,-0.014 -0.0023,-0.022 0.0114,-0.022 0.01346,0 0.01772,-0.018 0.0093,-0.04 -0.01017,-0.026 -0.006,-0.034 0.0125,-0.023 0.01809,0.014 0.02275,0 0.01346,-0.019 -0.0078,-0.021 -0.0018,-0.037 0.0136,-0.037 0.01532,0 0.02124,-0.014 0.01305,-0.023 -0.0081,-0.014 -0.0027,-0.023 0.01195,-0.023 0.01471,0 0.02008,-0.014 0.01195,-0.023 -0.0081,-0.014 -0.0027,-0.023 0.01195,-0.023 0.01471,0 0.02008,-0.014 0.01195,-0.023 -0.0081,-0.014 -0.0027,-0.023 0.01195,-0.023 0.01471,0 0.02008,-0.014 0.01195,-0.023 -0.0081,-0.014 -0.0027,-0.023 0.01195,-0.023 0.01471,0 0.02008,-0.014 0.01195,-0.023 -0.0081,-0.014 -0.0027,-0.023 0.01195,-0.023 0.01471,0 0.02063,-0.014 0.01319,-0.022 -0.0074,-0.014 -0.0023,-0.025 0.01168,-0.03 0.01383,0 0.02692,-0.033 0.02915,-0.062 0.0023,-0.029 0.01319,-0.054 0.02423,-0.054 0.01113,0 0.0136,-0.014 0.0055,-0.023 -0.0081,-0.014 -0.0027,-0.023 0.01195,-0.023 0.01471,0 0.02008,-0.014 0.01195,-0.023 -0.0081,-0.014 -0.0037,-0.023 0.0098,-0.023 0.01346,0 0.01772,-0.018 0.0093,-0.04 -0.01017,-0.026 -0.006,-0.034 0.0125,-0.023 0.01809,0.014 0.02275,0.014 0.01346,-0.021 -0.0078,-0.021 -0.0018,-0.037 0.0136,-0.037 0.01532,0 0.02124,-0.014 0.01305,-0.023 -0.0081,-0.014 -0.0023,-0.023 0.01346,-0.023 0.01995,0 0.01856,-0.014 -0.0047,-0.04 -0.02817,-0.034 -0.02776,-0.039 0.0033,-0.028 0.02438,0.014 0.03683,0 0.0389,-0.037 0.0059,-0.099 0.09983,-0.3331 0.149585,-0.3735 0.0081,-0.014 0.01772,-0.033 0.02132,-0.061 0.0066,-0.047 0.0062,-0.047 -0.02988,0 -0.02008,0.026 -0.0365,0.063 -0.0365,0.082 0,0.026 -0.0074,0.029 -0.02595,0.014 -0.01864,-0.019 -0.01512,-0.047 0.01264,-0.1003 0.02118,-0.041 0.03257,-0.074 0.02536,-0.074 -0.0073,0 0.0033,-0.032 0.0235,-0.071 0.02017,-0.039 0.0389,-0.099 0.04168,-0.1319 0.0027,-0.033 0.01209,-0.06 0.02063,-0.06 0.0087,0 0.02243,-0.043 0.03072,-0.095 0.0082,-0.052 0.02753,-0.125 0.04279,-0.1614 0.01522,-0.037 0.02587,-0.076 0.02359,-0.087 -0.0023,-0.014 0.01264,-0.051 0.03298,-0.091 0.0204,-0.038 0.03062,-0.082 0.02271,-0.095 -0.0078,-0.014 -0.0023,-0.023 0.01236,-0.023 0.01471,0 0.02008,-0.014 0.01195,-0.023 -0.0081,-0.014 -0.0027,-0.023 0.01195,-0.023 0.01471,0 0.02077,-0.014 0.01346,-0.022 -0.0073,-0.014 0.0014,-0.056 0.01938,-0.099 0.02128,-0.051 0.03719,-0.066 0.0458,-0.044 0.0081,0.021 0.01393,0.022 0.01508,0.014 9.08e-4,-0.015 -0.0084,-0.034 -0.02096,-0.043 -0.01264,-0.014 -0.01684,-0.03 -0.0095,-0.049 0.0074,-0.019 0.02489,-0.029 0.03886,-0.019 0.01508,0.014 0.02017,0 0.0125,-0.018 -0.01481,-0.039 0.03844,-0.099 0.06509,-0.074 0.0096,0.014 0.0096,-0.014 -1.7e-5,-0.04 -0.01195,-0.038 -0.0092,-0.052 0.0089,-0.04 0.01698,0.014 0.02646,-0.014 0.02646,-0.051 0,-0.037 0.09732,-0.2715 0.216257,-0.5209 l 0.216259,-0.4535 -0.110641,-0.3591 c -0.06086,-0.1975 -0.138037,-0.4452 -0.171517,-0.5505 -0.08847,-0.2779 -0.34256,-0.9212 -0.465436,-1.1781 -0.06028,-0.1264 -0.09205,-0.2166 -0.07356,-0.2095 0.0179,0.014 0.02595,0 0.0179,-0.014 -0.0081,-0.014 -0.03279,-0.023 -0.05503,-0.023 -0.03267,-2e-4 -0.034,-0.014 -0.0071,-0.022 0.02683,-0.018 0.02447,-0.023 -0.01195,-0.034 -0.02493,-0.014 0.007,-0.014 0.07084,-0.014 0.06521,0 0.126191,0.021 0.139027,0.04 0.01628,0.023 0.0185,0.018 0.0078,-0.021 -0.0084,-0.03 -0.0099,-0.054 -0.0037,-0.054 0.01481,0 0.206885,0.3328 0.206885,0.3584 0,0.033 0.176982,0.1264 0.186562,0.098 0.0048,-0.015 0.0186,-0.021 0.03064,-0.014 0.01209,0.014 0.02188,10e-4 0.02188,-0.015 0,-0.032 0.381262,0.3366 0.382022,0.3693 2.44e-4,0.014 0.05428,0.093 0.120023,0.1822 0.06573,0.089 0.119528,0.1722 0.119528,0.1855 0,0.014 0.01596,0.03 0.03544,0.038 0.02017,0.014 0.02937,0.03 0.02138,0.051 -0.0078,0.019 -0.0023,0.036 0.01236,0.036 0.01456,0 0.02646,0.021 0.02646,0.047 0,0.025 0.0093,0.049 0.02067,0.053 0.02929,0.014 0.214427,0.3069 0.337863,0.5396 0.05745,0.1086 0.108003,0.1933 0.112331,0.1889 0.01264,-0.014 -0.16184,-0.3841 -0.188098,-0.4003 -0.01319,-0.014 -0.02137,-0.019 -0.01831,-0.023 0.0033,-0.014 -0.0023,-0.034 -0.01209,-0.066 -0.03316,-0.1044 0.0073,-0.081 0.05985,0.036 0.02892,0.063 0.05996,0.1209 0.06906,0.1278 0.06348,0.047 0.630246,1.3295 0.630667,1.4284 7.3e-5,0.016 0.0103,0.03 0.02263,0.03 0.01236,0 0.01642,0.015 0.0089,0.036 -0.0074,0.019 -0.0027,0.041 0.0098,0.049 0.01278,0.014 0.01708,0.025 0.0095,0.036 -0.0077,0.014 -0.0014,0.022 0.01411,0.022 0.01532,0 0.02169,0.016 0.01411,0.036 -0.0076,0.019 -0.0027,0.036 0.01099,0.036 0.01438,0 0.018,0.022 0.0087,0.051 -0.01195,0.037 -0.0081,0.047 0.01411,0.032 0.02202,-0.014 0.02656,0 0.01675,0.033 -0.0087,0.033 -0.0041,0.047 0.01195,0.036 0.01628,-0.014 0.02059,0 0.01195,0.036 -0.0085,0.033 -0.0041,0.047 0.01168,0.036 0.01666,-0.014 0.01962,0.014 0.0087,0.049 -0.01195,0.048 -0.0087,0.061 0.01223,0.048 0.02003,-0.014 0.02466,0 0.01536,0.033 -0.0073,0.027 4.63e-4,0.062 0.01749,0.075 0.0416,0.034 0.08911,0.2314 0.07124,0.2953 -0.01017,0.036 -0.0078,0.041 0.008,0.019 0.01638,-0.023 0.02675,-0.014 0.03857,0.055 0.0089,0.047 0.0087,0.099 -4.62e-4,0.1141 -0.01099,0.018 -0.006,0.021 0.01456,0.014 0.02337,-0.015 0.02794,-0.014 0.0179,0.032 -0.0074,0.029 -0.0023,0.052 0.01099,0.052 0.01346,0 0.01883,0.022 0.01195,0.048 -0.0069,0.026 -0.0041,0.043 0.0062,0.036 0.02331,-0.015 0.08067,0.1853 0.08282,0.2885 9.08e-4,0.041 0.01126,0.071 0.023,0.063 0.01181,-0.014 0.016,0.015 0.0095,0.049 -0.0066,0.034 -0.0037,0.058 0.0066,0.051 0.02544,-0.015 0.05399,0.1251 0.03243,0.1595 -0.0103,0.016 -0.0071,0.022 0.0076,0.014 0.03188,-0.021 0.06068,0.091 0.0415,0.1595 -0.01195,0.043 -0.0096,0.045 0.01305,0.016 0.02169,-0.029 0.02456,-0.018 0.0136,0.048 -0.0077,0.047 -0.0054,0.07 0.0052,0.055 0.01154,-0.018 0.06878,0.1547 0.143202,0.4304 0.06825,0.2529 0.172817,0.6374 0.23237,0.8543 0.05955,0.217 0.168211,0.6473 0.241457,0.9563 0.07325,0.3089 0.138996,0.5779 0.146106,0.5977 0.0071,0.019 0.01596,0.058 0.01962,0.085 0.0037,0.027 0.0203,0.098 0.03691,0.1554 0.01661,0.058 0.02794,0.1154 0.02517,0.1264 -0.0027,0.014 0.006,0.033 0.01948,0.049 0.01346,0.016 0.0179,0.036 0.0099,0.044 -0.0081,0.014 -0.0063,0.034 0.0037,0.058 0.01017,0.023 0.01995,0.054 0.02165,0.067 0.01099,0.087 0.04529,0.2429 0.05744,0.2629 0.01837,0.03 0.02901,0.081 0.03169,0.1499 9.08e-4,0.03 0.01099,0.061 0.02198,0.066 0.01099,0.014 0.01383,0.027 0.0063,0.047 -0.0074,0.019 -0.0014,0.036 0.01346,0.036 0.01679,0 0.02128,0.022 0.01195,0.06 -0.0093,0.037 -0.0049,0.061 0.01195,0.061 0.01679,0 0.02133,0.022 0.01195,0.06 -0.0099,0.038 -0.0049,0.061 0.01407,0.061 0.01596,0 0.02317,0.015 0.01596,0.034 -0.0073,0.019 -9.08e-4,0.076 0.01374,0.125 0.01477,0.049 0.02447,0.1003 0.02165,0.1113 -0.0027,0.014 0.0059,0.033 0.01934,0.049 0.01346,0.016 0.0179,0.036 0.0099,0.044 -0.0081,0.014 -0.0066,0.034 0.0033,0.058 0.0099,0.023 0.02212,0.074 0.02706,0.1126 0.0049,0.038 0.01985,0.082 0.03312,0.099 0.01333,0.016 0.0178,0.045 0.01017,0.064 -0.0077,0.021 -0.0023,0.044 0.0125,0.052 0.01457,0.014 0.01999,0.037 0.01195,0.062 -0.0085,0.027 -0.0033,0.045 0.01264,0.045 0.01587,0 0.0211,0.019 0.01264,0.047 -0.008,0.026 -0.0033,0.052 0.01044,0.06 0.01393,0.014 0.01813,0.043 0.0095,0.077 -0.01181,0.047 -0.0081,0.058 0.01536,0.043 0.02355,-0.014 0.02712,0 0.01499,0.044 -0.0099,0.038 -0.006,0.063 0.01003,0.063 0.01471,0 0.01966,0.019 0.0114,0.045 -0.008,0.025 -0.0027,0.052 0.0114,0.062 0.01421,0.014 0.01962,0.036 0.01195,0.061 -0.0077,0.023 -0.0037,0.049 0.0087,0.058 0.0125,0.014 0.01735,0.034 0.01085,0.059 -0.0065,0.025 -4.63e-4,0.052 0.01319,0.061 0.01374,0.014 0.01888,0.03 0.01154,0.051 -0.0074,0.019 -9.08e-4,0.036 0.01462,0.036 0.01679,0 0.02226,0.018 0.0136,0.047 -0.008,0.025 -0.0027,0.052 0.0114,0.062 0.01421,0.014 0.01962,0.036 0.01195,0.06 -0.0077,0.025 -0.0037,0.05 0.0087,0.058 0.0125,0.014 0.01702,0.036 0.01017,0.062 -0.0074,0.029 -9.07e-4,0.048 0.01582,0.048 0.01743,0 0.02249,0.018 0.01319,0.048 -0.0091,0.029 -0.0041,0.048 0.01195,0.048 0.01587,0 0.0211,0.019 0.01264,0.045 -0.008,0.026 -0.0037,0.052 0.0093,0.06 0.01305,0.014 0.01772,0.03 0.0103,0.05 -0.0074,0.019 -2.44e-4,0.052 0.01591,0.071 0.01624,0.019 0.02151,0.036 0.01168,0.036 -0.0098,0 -0.0055,0.015 0.0095,0.033 0.01499,0.018 0.02054,0.049 0.01236,0.071 -0.0087,0.022 -0.0027,0.038 0.01416,0.038 0.01907,0 0.02388,0.021 0.01407,0.061 -0.0091,0.036 -0.0048,0.06 0.01099,0.06 0.01508,0 0.01962,0.019 0.01072,0.048 -0.0091,0.029 -0.0041,0.048 0.01195,0.048 0.01624,0 0.02105,0.019 0.01195,0.048 -0.0091,0.029 -0.0041,0.048 0.01195,0.048 0.01624,0 0.02105,0.019 0.01195,0.048 -0.0091,0.029 -0.0041,0.048 0.01195,0.048 0.01624,0 0.02105,0.019 0.01195,0.048 -0.0091,0.029 -0.0041,0.048 0.01195,0.048 0.01587,0 0.0211,0.019 0.01264,0.047 -0.008,0.025 -0.0027,0.053 0.01195,0.062 0.01458,0.014 0.02073,0.032 0.01374,0.049 -0.0071,0.018 -0.0018,0.033 0.01195,0.033 0.01387,0 0.01809,0.021 0.0096,0.048 -0.0091,0.029 -0.0041,0.048 0.01195,0.048 0.01624,0 0.02105,0.019 0.01195,0.048 -0.0091,0.029 -0.0041,0.048 0.01195,0.048 0.01624,0 0.02105,0.019 0.01195,0.048 -0.0084,0.026 -0.0047,0.048 0.0081,0.048 0.01278,0 0.01721,0.023 0.0098,0.052 -0.0098,0.037 -0.0052,0.047 0.01675,0.033 0.02226,-0.014 0.02599,-0.014 0.01411,0.032 -0.0093,0.029 -0.0058,0.051 0.0087,0.051 0.0136,0 0.01856,0.017 0.01099,0.036 -0.0076,0.019 -9.08e-4,0.036 0.01528,0.036 0.01596,0 0.02286,0.016 0.01526,0.036 -0.0076,0.019 -0.0027,0.036 0.01099,0.036 0.01387,0 0.01809,0.021 0.0096,0.048 -0.0085,0.027 -0.0041,0.048 0.0096,0.048 0.0136,0 0.0186,0.016 0.01099,0.036 -0.0076,0.019 -0.0027,0.036 0.01044,0.036 0.01332,0 0.01813,0.023 0.01071,0.052 -0.0087,0.033 -0.0047,0.047 0.01223,0.036 0.0253,-0.015 0.0937,0.1409 0.08105,0.1856 -0.0033,0.014 0.0037,0.027 0.01633,0.036 0.03322,0.021 0.101382,0.195 0.08605,0.2199 -0.0073,0.014 -0.0027,0.022 0.0095,0.022 0.0125,0 0.03058,0.03 0.04021,0.066 0.0096,0.036 0.02243,0.052 0.02849,0.036 0.006,-0.016 0.02151,-0.03 0.03433,-0.03 0.01278,0 0.01671,0.014 0.0085,0.023 -0.0081,0.014 -0.0033,0.023 0.01058,0.023 0.01393,0 0.0253,0.016 0.0253,0.036 0,0.019 0.0114,0.036 0.0253,0.036 0.01393,0 0.01864,0.014 0.01058,0.023 -0.0081,0.014 -0.0033,0.023 0.01058,0.023 0.01393,0 0.02262,0.014 0.01934,0.019 -0.0087,0.027 0.12821,0.2039 0.334694,0.4286 0.04275,0.047 0.0777,0.092 0.0777,0.1017 0,0.014 0.0265,0.032 0.05895,0.048 0.03243,0.018 0.05388,0.04 0.0477,0.05 -0.0062,0.014 0.01837,0.041 0.05461,0.07 0.03728,0.029 0.0477,0.047 0.02401,0.04 -0.07981,-0.026 -0.04123,0.014 0.08007,0.07 0.06705,0.033 0.128045,0.055 0.135532,0.048 0.0076,-0.014 0.03132,0 0.05298,0.022 0.02165,0.021 0.07631,0.041 0.121466,0.047 0.07234,0.014 0.07499,0.014 0.02235,-0.014 -0.04794,-0.018 -0.03511,-0.022 0.06494,-0.015 0.07936,0.014 0.119295,0 0.109843,-0.016 -0.0095,-0.015 0.01291,-0.018 0.06176,-0.014 0.0452,0.014 0.07098,0.014 0.06285,-0.014 -0.01444,-0.023 0.169843,-0.014 0.210998,0.016 0.01264,0.014 0.01526,0 0.0059,-0.014 -0.0093,-0.015 -0.0069,-0.027 0.0058,-0.027 0.0125,0 0.02896,0.016 0.0365,0.036 0.0076,0.021 0.0033,0.036 -0.0093,0.036 -0.01278,0 -0.02313,0.014 -0.02313,0.021 0,0.014 0.01883,0.021 0.04182,0.021 0.08752,-5e-4 0.103497,0.014 0.09667,0.048 -0.0049,0.029 0.0063,0.04 0.03719,0.034 0.02434,-0.014 0.03771,0 0.02974,0.015 -0.008,0.014 -0.0018,0.029 0.01374,0.033 0.01554,0.014 -0.0058,0.033 -0.04711,0.063 -0.06711,0.048 -0.07212,0.059 -0.04598,0.1044 0.01614,0.027 0.04783,0.073 0.07047,0.098 0.03904,0.044 0.03877,0.049 -0.0054,0.086 -0.03895,0.033 -0.04363,0.058 -0.02868,0.1448 l 0.01782,0.1044 0.04992,-0.078 c 0.03904,-0.062 0.05308,-0.071 0.0645,-0.041 0.008,0.021 0.0065,0.039 -0.0033,0.039 -0.0099,0 -0.01989,0.019 -0.0222,0.041 -0.01044,0.1057 -0.03742,0.1971 -0.05803,0.1971 -0.0125,0 -0.0162,0.014 -0.0084,0.023 0.0078,0.014 -0.01154,0.063 -0.04294,0.114 -0.0314,0.049 -0.05939,0.1016 -0.06211,0.114 -0.0099,0.048 -0.256913,0.2312 -0.420363,0.3121 -0.208889,0.103 -0.666057,0.2025 -0.920408,0.1993 -0.09861,0 -0.268341,-0.018 -0.377164,-0.036 z m 1.751804,-0.9899 c 0.0081,-0.014 0.0033,-0.023 -0.01058,-0.023 -0.01393,0 -0.0253,0.014 -0.0253,0.023 0,0.014 0.0048,0.023 0.01058,0.023 0.0058,0 0.01721,-0.014 0.0253,-0.023 z m -9.613344,-0.061 c 0.0082,-0.021 0.0042,-0.032 -0.0094,-0.022 -0.013,0.014 -0.02364,0.025 -0.02364,0.037 0,0.034 0.01712,0.027 0.03303,-0.015 z m 7.835259,-1.6189 c -0.02359,-0.023 -0.02638,-0.021 -0.01333,0.014 0.0089,0.023 0.02234,0.037 0.0297,0.03 0.0074,-0.014 1.3e-5,-0.026 -0.01633,-0.042 z m -7.988554,-4.1175 c 0,-0.014 -0.01041,-0.014 -0.02317,0.014 -0.01272,0.021 -0.02318,0.047 -0.02318,0.061 0,0.014 0.01041,0.014 0.02318,-0.014 0.01277,-0.019 0.02317,-0.047 0.02317,-0.06 z m 1.898488,-0.2642 c 0.0081,-0.021 0.0041,-0.032 -0.0093,-0.023 -0.01305,0.014 -0.02364,0.025 -0.02364,0.037 0,0.034 0.01712,0.027 0.03304,-0.014 z m 0.767849,-2.5687 c 0.0081,-0.014 -0.0027,-0.023 -0.02392,-0.023 -0.02128,0 -0.03202,0.014 -0.02392,0.023 0.0081,0.014 0.01887,0.023 0.02392,0.023 0.0051,0 0.01577,-0.014 0.02392,-0.023 z m 0.05687,-0.2271 c -4.63e-4,-0.032 -0.01209,-0.018 -0.03294,0.036 -0.04219,0.1099 -0.0415,0.1763 9.08e-4,0.084 0.01805,-0.039 0.03252,-0.093 0.0321,-0.1195 z m -1.049,-0.1823 c 0,-0.014 -0.01071,-0.018 -0.02392,-0.014 -0.01319,0.014 -0.02392,0.025 -0.02392,0.038 0,0.014 0.01071,0.018 0.02392,0.014 0.01319,-0.014 0.02392,-0.026 0.02392,-0.04 z m 1.673472,-6.2846 c 0,-0.026 -0.0098,-0.048 -0.02165,-0.048 -0.01195,0 -0.01605,0.022 -0.0092,0.048 0.0069,0.026 0.01661,0.048 0.02165,0.048 0.0051,0 0.0092,-0.022 0.0092,-0.048 z"
       id="path8186"
       inkscape:connector-curvature="0" />
    <text
       xml:space="preserve"
       style="font-style:normal;font-weight:normal;font-size:14.11111069px;line-height:1.25;font-family:sans-serif;letter-spacing:0px;word-spacing:0px;opacity:0.3;fill:#92dce5;fill-opacity:0.94117647;stroke:none;stroke-width:0.26458332;filter:url(#filter8750)"
       x="99.905548"
       y="17.140762"
       id="text8720"
       transform="matrix(0.51671564,0,0,0.51671564,-13.885942,-2034.1154)"><tspan
         sodipodi:role="line"
         id="tspan8718"
         x="99.905548"
         y="17.140762"
         style="font-style:normal;font-variant:normal;font-weight:normal;font-stretch:normal;font-family:'GFS Artemisia';-inkscape-font-specification:'GFS Artemisia';letter-spacing:1.32291663px;fill:#92dce5;fill-opacity:0.94117647;stroke-width:0.26458332">Revista</tspan></text>
    <text
       id="text8724"
       y="-2025.3038"
       x="37.593586"
       style="font-style:normal;font-weight:normal;font-size:7.29143095px;line-height:1.25;font-family:sans-serif;letter-spacing:0px;word-spacing:0px;fill:#1e2223;fill-opacity:0.94117647;stroke:none;stroke-width:0.13671432"
       xml:space="preserve"><tspan
         style="font-style:normal;font-variant:normal;font-weight:normal;font-stretch:normal;font-family:'GFS Artemisia';-inkscape-font-specification:'GFS Artemisia';letter-spacing:0.6835717px;fill:#1e2223;fill-opacity:0.94117647;stroke-width:0.13671432"
         y="-2025.3038"
         x="37.593586"
         id="tspan8722"
         sodipodi:role="line">Revista</tspan></text>
    <text
       xml:space="preserve"
       style="font-style:normal;font-weight:normal;font-size:14.11111069px;line-height:1.25;font-family:sans-serif;letter-spacing:0px;word-spacing:0px;opacity:0.3;fill:#004e64;fill-opacity:0.94117647;stroke:none;stroke-width:0.26458332;filter:url(#filter8762)"
       x="99.701431"
       y="17.308962"
       id="text8756"
       transform="matrix(0.51671564,0,0,0.51671564,-13.885942,-2034.1154)"><tspan
         sodipodi:role="line"
         id="tspan8754"
         x="99.701431"
         y="17.308962"
         style="font-style:normal;font-variant:normal;font-weight:normal;font-stretch:normal;font-family:'GFS Artemisia';-inkscape-font-specification:'GFS Artemisia';letter-spacing:1.32291663px;fill:#004e64;fill-opacity:0.94117647;stroke-width:0.26458332">Revista</tspan></text>
    <rect
       style="opacity:0;fill:#fffaff;fill-opacity:0.94117647;stroke-width:0.1;stroke-miterlimit:4;stroke-dasharray:none;paint-order:stroke markers fill"
       id="rect8789"
       width="105.00651"
       height="27.905273"
       x="50.849609"
       y="78.925453"
       ry="1.2058438" />
    <rect
       style="opacity:0;fill:#fffaff;fill-opacity:0.94117647;stroke-width:0.1;stroke-miterlimit:4;stroke-dasharray:none;paint-order:stroke markers fill"
       id="rect8791"
       width="26.251627"
       height="37.207031"
       x="37.620441"
       y="73.137695"
       ry="1.2058438" />
    <rect
       style="opacity:0;fill:#fffa5e;fill-opacity:0.94117647;stroke-width:0.1;stroke-miterlimit:4;stroke-dasharray:none;paint-order:stroke markers fill"
       id="rect8795"
       width="156.2695"
       height="78.341476"
       x="-0.41341144"
       y="0.58398354"
       ry="1.2058438" />
    <rect
       style="opacity:0;fill:#fffa5e;fill-opacity:0.94117647;stroke-width:0.1;stroke-miterlimit:4;stroke-dasharray:none;paint-order:stroke markers fill"
       id="rect8797"
       width="35.139973"
       height="35.139973"
       x="76.894531"
       y="92.774734"
       ry="1.2058438" />
    <rect
       style="opacity:0;fill:#5afa5e;fill-opacity:0.94117647;stroke-width:0.04626236;stroke-miterlimit:4;stroke-dasharray:none;paint-order:stroke markers fill"
       id="rect8806"
       width="65.504471"
       height="28.496838"
       x="6.9441276"
       y="-2031.416"
       ry="0.55785191" />
  </g>
</svg>
